<svg width="208" height="173" viewBox="0 0 208 173" fill="none" xmlns="http://www.w3.org/2000/svg">
<g clip-path="url(#clip0_257_877)">
<rect x="28" y="24" width="153" height="153" rx="76.5" fill="#0D6B3C" fill-opacity="0.3"/>
<ellipse cx="74" cy="66" rx="63" ry="57" fill="#F0F2F1"/>
<g opacity="0.5">
<path fill-rule="evenodd" clip-rule="evenodd" d="M63.6765 30.0154C59.5885 30.0614 55.5025 30.2122 51.4226 30.4704C47.5427 30.7162 43.3329 30.5296 39.5163 31.2817C38.4325 31.4951 36.9685 32.4829 38.4095 33.5693C39.4224 34.3331 43.1282 33.4545 44.3377 33.3802C48.792 33.1065 53.2486 32.7785 57.7092 32.6209C61.932 32.4716 66.1545 32.419 70.3794 32.3769C71.0244 32.3706 72.0951 32.1637 72.7374 32.351C73.6604 32.6202 73.4414 32.6934 73.5105 33.8649C73.6358 35.9875 73.6012 38.1177 73.5591 40.2423C73.5184 42.2983 73.4423 44.354 73.4498 46.4109C73.4549 47.8784 72.9858 50.7945 73.7222 52.0689C74.7821 53.9033 75.8816 51.9109 75.9608 50.6919C76.1125 48.3604 76.0445 46.0003 76.0452 43.6659C76.0457 41.4746 76.0614 39.2834 75.9842 37.0932C75.9282 35.5111 76.1543 32.7494 75.3021 31.3112C74.4341 29.8464 72.3442 30.1622 70.8192 30.0924C68.4404 29.983 66.0573 29.9907 63.6765 30.0154Z" fill="#89C5CC"/>
<path fill-rule="evenodd" clip-rule="evenodd" d="M37.6664 32.6595C37.6709 36.7766 37.1946 40.8663 37.0612 44.9786C37 46.8694 36.8758 48.9456 37.3541 50.8016C37.8369 52.6757 39.3704 53.0818 39.5471 50.9896C39.9048 46.753 39.817 42.3599 40.0956 38.0893C40.1939 36.5815 40.8338 33.8182 40.2364 32.4063C39.7104 31.1625 37.6641 30.9241 37.6664 32.6595Z" fill="#89C5CC"/>
<path fill-rule="evenodd" clip-rule="evenodd" d="M76.0009 50.8072C68.9014 51.7471 61.4795 51.4044 54.3294 51.5521C50.899 51.623 47.4693 51.6275 44.0385 51.6633C42.8411 51.6757 39.8004 51.2203 38.7646 51.8934C37.1156 52.9649 38.9047 53.7918 39.9964 53.8154C46.7669 53.9637 53.6128 53.6524 60.382 53.4302C63.4234 53.3305 66.4747 53.2816 69.508 53.0232C71.3754 52.8641 73.416 52.7099 75.2294 52.2081C75.6157 52.1009 76.4569 52.1232 76.5435 51.5962C76.5969 51.2703 76.5001 50.7383 76.0009 50.8072Z" fill="#89C5CC"/>
<path fill-rule="evenodd" clip-rule="evenodd" d="M46.4792 56.7918C44.506 56.8033 38.5601 55.8869 37.7429 57.8109C36.6535 60.377 40.9033 59.778 42.0462 59.7487C44.6422 59.6821 47.2363 59.6749 49.8328 59.676C52.3806 59.6771 54.9281 59.6607 57.4754 59.6001C58.2134 59.5823 59.9312 59.8887 60.3557 59C60.6784 58.3246 60.4234 57.7918 59.8284 57.4343C58.3965 56.5737 54.6768 57.0728 53.0004 56.9953C50.83 56.8954 48.6523 56.7918 46.4792 56.7918Z" fill="#89C5CC"/>
<path fill-rule="evenodd" clip-rule="evenodd" d="M70.4837 57.2669C69.3561 57.334 67.0752 56.8692 66.065 57.3851C64.9169 57.9718 65.3214 58.8902 66.3127 59.2939C66.9991 59.5732 69.8151 59.4267 70.4837 59.103C71.1807 58.7653 71.9689 57.1755 70.4837 57.2669Z" fill="#89C5CC"/>
<path fill-rule="evenodd" clip-rule="evenodd" d="M82.8465 33.0635C81.6421 33.3939 82.0075 40.2313 81.9765 41.3152C81.8914 44.2849 81.5576 48.02 82.5443 50.8801C83.1736 52.7033 84.3823 52.4561 84.1764 50.5366C83.9955 48.8518 83.6853 47.1864 83.5509 45.4906C83.2472 41.6536 82.8339 37.5608 83.1208 33.7206C83.2429 33.9437 84.3854 36.0134 84.6543 35.8589C84.5731 35.9071 83.3365 32.9343 82.8465 33.0635Z" fill="#89C5CC"/>
<path fill-rule="evenodd" clip-rule="evenodd" d="M96.3939 30.5453C93.9566 30.5813 91.5193 30.6245 89.0827 30.692C87.1453 30.7461 84.101 30.4277 82.3243 31.2427C80.2087 32.2129 81.2124 34.3749 83.1995 34.4206C84.9573 34.4611 86.8319 34.0647 88.6057 34.0039C93.3968 33.8398 98.1965 33.8049 102.99 33.7639C107.325 33.7266 111.844 34.1889 116.141 33.5379C116.779 39.1975 115.055 44.8809 115.641 50.6056C115.732 51.4941 115.691 52.7495 116.823 52.9519C118.251 53.2074 118.309 51.793 118.364 50.7803C118.518 47.8884 118.435 44.9944 118.646 42.0988C118.842 39.4154 119.229 36.6728 118.902 33.9852C118.501 30.6778 116.916 30.943 114.115 30.8055C108.198 30.5153 102.317 30.4584 96.3939 30.5453Z" fill="#89C5CC"/>
<path fill-rule="evenodd" clip-rule="evenodd" d="M88.2257 50.6417C86.9837 50.673 84.921 50.2903 84.1253 51.4811C83.2973 52.7201 84.2796 53.8009 85.4835 54.0553C86.9086 54.3563 88.7668 53.9436 90.2458 53.9391C91.7861 53.9346 93.3268 53.9517 94.8671 53.9578C101.471 53.9837 108.103 54.0836 114.702 53.8106C115.623 53.7725 118.239 54.0816 118.876 53.1976C119.442 52.4135 119.046 51.7103 118.301 51.3109C117.078 50.6556 114.566 50.9048 113.206 50.8528C111.526 50.7889 109.844 50.768 108.163 50.7418C101.528 50.6394 94.8594 50.4776 88.2257 50.6417Z" fill="#89C5CC"/>
<path fill-rule="evenodd" clip-rule="evenodd" d="M93.8118 56.3698C91.3405 56.4118 88.7039 56.3033 86.2572 56.6782C84.1058 57.0077 83.841 59.0873 86.1568 59.3307C88.285 59.5544 90.8651 59.1364 93.0036 58.9991C93.7632 58.9502 94.6465 59.0196 95.0105 58.1799C95.3905 57.3026 94.664 56.4614 93.8118 56.3698Z" fill="#89C5CC"/>
<path fill-rule="evenodd" clip-rule="evenodd" d="M112.494 56.5881C111.175 56.6209 107.323 56.0539 106.669 57.5603C105.582 60.0685 110.797 59.1156 111.798 59.0787C113.059 59.0323 117.974 59.7687 117.975 57.7611C117.976 55.7925 113.702 56.5581 112.494 56.5881Z" fill="#89C5CC"/>
<path fill-rule="evenodd" clip-rule="evenodd" d="M37.4531 69.0515C37.4562 73.6143 37.1723 78.2199 37.5885 82.7711C37.7607 84.6535 37.7312 88.2593 38.8215 89.8552C39.5954 90.9879 40.6688 90.9085 41.0916 89.5483C41.3742 88.6391 40.9222 86.8206 40.8718 85.8479C40.8232 84.9144 40.7665 83.9813 40.7233 83.0475C40.6124 80.6419 40.6211 78.24 40.6542 75.8331C40.6826 73.7685 41.1796 71.037 40.7109 69.0515C40.274 67.2011 37.4531 66.7684 37.4531 69.0515Z" fill="#69A1AC"/>
<path fill-rule="evenodd" clip-rule="evenodd" d="M83.3094 65.0375C75.3933 65.2361 67.4593 65.0587 59.5501 65.4506C55.6495 65.6437 51.7642 66.0681 47.8831 66.4911C45.9764 66.6991 44.0707 66.9134 42.1673 67.1479C41.5929 67.2186 36.8201 67.4037 38.6152 69.2188C39.3991 70.0114 41.8935 69.1834 42.8805 69.0666C44.7916 68.841 46.7065 68.6443 48.6202 68.4419C52.2618 68.0567 55.908 67.6918 59.5652 67.4894C68.1784 67.0122 76.8271 67.1554 85.4488 66.8373C87.7811 66.7513 90.1063 66.6896 92.4394 66.7815C93.0521 66.8055 97.5541 67.0343 95.5994 65.3716C94.6751 64.585 91.1903 64.9909 90.0352 64.9673C87.7934 64.9209 85.5503 64.9812 83.3094 65.0375Z" fill="#69A1AC"/>
<path fill-rule="evenodd" clip-rule="evenodd" d="M94.1011 72.7248C94.062 70.6166 94.0228 68.5084 93.9268 66.4023C93.8258 64.184 96.8474 63.8479 97.7435 65.6434C98.3886 66.9361 98.2752 69.1356 98.1779 71.0207C98.1388 71.7804 98.1022 72.4891 98.119 73.0667C98.1575 74.3908 98.2549 75.7598 98.3536 77.147C98.6019 80.6378 98.8584 84.2441 98.2058 87.5393C97.8887 89.1408 96.5378 89.9824 95.6387 89.1096C95.6374 89.1114 95.6362 89.1133 95.635 89.1151C95.2968 89.6135 94.244 89.6124 93.4687 89.6116C93.2551 89.6113 93.0626 89.6111 92.9119 89.6214C90.7878 89.7657 88.7031 90.0092 86.5979 90.3249C82.4032 90.9536 78.245 91.3401 74.0049 91.445C71.1279 91.5161 68.2469 91.5401 65.3651 91.564C59.8468 91.6098 54.3257 91.6556 48.825 92.033C46.9704 92.1604 45.144 92.3788 43.3198 92.7279C43.1645 92.7577 42.992 92.796 42.8085 92.8369C41.4521 93.1385 39.4885 93.5751 39.3544 91.6796C39.1949 89.4298 44.0709 89.1352 46.5802 88.9836C46.9633 88.9604 47.2912 88.9406 47.5376 88.9177C55.1566 88.2089 62.8952 88.3187 70.5465 88.4272C70.9172 88.4325 71.2878 88.4377 71.6581 88.4429C72.2552 88.4512 72.8521 88.461 73.4489 88.4708C76.7249 88.5248 79.9969 88.5786 83.2719 88.3783C84.7622 88.2871 86.272 88.2403 87.7846 88.1934C90.1977 88.1186 92.6181 88.0436 94.9782 87.7879C94.6223 86.4079 94.56 84.7791 94.5013 83.2441C94.4785 82.6464 94.4562 82.0629 94.4173 81.5139C94.21 78.5881 94.1555 75.6565 94.1011 72.7248Z" fill="#69A1AC"/>
<path fill-rule="evenodd" clip-rule="evenodd" d="M100.508 68.0271C99.4385 68.1725 98.5465 69.0878 99.0239 70.2488C99.6253 71.7104 101.416 71.1393 102.6 71.0468C106.36 70.7521 110.287 71.3406 114.003 70.8966C115.017 70.7753 116.489 70.2226 115.578 68.8591C114.894 67.8344 112.398 68.0143 111.338 67.9161C107.71 67.5805 104.131 67.6701 100.508 68.0271Z" fill="#C1DEE2"/>
<path fill-rule="evenodd" clip-rule="evenodd" d="M106.855 74.4041C105.397 74.5023 102.002 74.4251 101.387 76.0846C100.284 79.0617 104.603 78.0127 105.918 77.8434C107.445 77.6467 111.046 78.1734 111.859 76.6922C113.313 74.0435 108.134 74.3159 106.855 74.4041Z" fill="#C1DEE2"/>
<path fill-rule="evenodd" clip-rule="evenodd" d="M103.105 80.9377C102.413 81.6299 102.412 82.866 103.105 83.5582C103.953 84.4058 105.802 84.2297 106.916 84.2916C108.471 84.3785 112.937 85.2009 113.709 83.37C114.751 80.8996 110.707 80.9514 109.377 80.8111C107.84 80.6493 104.379 79.6628 103.105 80.9377Z" fill="#C1DEE2"/>
<path fill-rule="evenodd" clip-rule="evenodd" d="M48.5983 38.6518C48.5983 41.3077 52.7464 41.3077 52.7464 38.6518C52.7464 36.0103 48.5983 35.97 48.5983 38.6518Z" fill="#89C5CC"/>
<path fill-rule="evenodd" clip-rule="evenodd" d="M56.4665 38.6819C56.4665 41.7182 61.1912 41.7121 61.1912 38.6819C61.1912 35.6561 56.4665 35.6253 56.4665 38.6819Z" fill="#89C5CC"/>
<path fill-rule="evenodd" clip-rule="evenodd" d="M51.7066 42.719C49.4099 43.3531 51.5257 45.2994 52.5922 45.744C54.287 46.4509 56.6001 46.9718 58.2954 45.9122C58.9699 45.4906 59.5175 44.9303 59.0232 44.112C58.4965 43.2408 57.7754 43.6282 56.9736 43.7086C55.9578 43.8108 55.1368 43.795 54.1558 43.4693C53.4237 43.2262 52.5051 42.4993 51.7066 42.719Z" fill="#89C5CC"/>
<path fill-rule="evenodd" clip-rule="evenodd" d="M93.3658 38.8199C93.3658 40.6163 96.1552 40.6163 96.1552 38.8199C96.1552 37.0235 93.3658 37.0235 93.3658 38.8199Z" fill="#89C5CC"/>
<path fill-rule="evenodd" clip-rule="evenodd" d="M99.5346 39.0903C99.5346 41.0862 102.633 41.0864 102.633 39.0903C102.633 37.0942 99.5346 37.0945 99.5346 39.0903Z" fill="#89C5CC"/>
<path fill-rule="evenodd" clip-rule="evenodd" d="M99.3051 43.4218C97.6773 43.6316 92.9694 44.1088 92.706 46.1153C92.2996 49.2108 97.4582 46.7055 98.6355 46.4624C100.135 46.1529 101.474 46.2337 102.971 46.2938C103.793 46.3266 104.886 46.4599 104.8 45.2078C104.659 43.1519 100.728 43.2394 99.3051 43.4218Z" fill="#89C5CC"/>
<path fill-rule="evenodd" clip-rule="evenodd" d="M58.3787 71.9683C57.1989 72.283 55.6554 74.3228 56.4672 75.571C57.7982 77.6185 58.3852 74.475 58.9423 74.1724C59.9559 73.6218 60.7786 75.6336 61.8379 74.5783C63.5093 72.9131 59.431 71.6865 58.3787 71.9683Z" fill="#69A1AC"/>
<path fill-rule="evenodd" clip-rule="evenodd" d="M71.8976 70.4549C70.4984 70.4678 67.5446 72.4488 67.3353 73.9113C67.2112 74.7805 67.7873 75.6154 68.7242 75.6271C69.9999 75.6427 70.4053 73.984 71.5111 73.6371C72.704 73.263 72.5269 74.1245 73.5572 74.5711C74.3111 74.8982 75.254 74.7613 75.5159 73.8343C76.01 72.0859 73.3353 70.4275 71.8976 70.4549Z" fill="#69A1AC"/>
<path fill-rule="evenodd" clip-rule="evenodd" d="M61.1874 78.8297C58.9495 80.1412 62.6318 82.9522 63.9084 83.3038C65.8357 83.8342 69.7144 82.8442 70.1712 80.4899C70.353 79.553 69.7669 78.7043 68.7328 78.872C67.8815 79.0103 67.3354 80.0782 66.5468 80.4607C65.4824 80.9768 64.5361 80.9417 63.6317 80.1646C62.8948 79.5316 62.5002 78.0641 61.1874 78.8297Z" fill="#69A1AC"/>
<path fill-rule="evenodd" clip-rule="evenodd" d="M62.8094 98.2073C60.81 98.6336 58.7774 98.3475 56.7683 98.7485C54.7196 99.1575 53.4952 99.9314 51.5918 99.1516C51.5022 99.1138 51.4129 99.076 51.3236 99.0382C49.8504 98.4038 48.3063 98.2158 46.7642 99.2273C45.8517 99.8256 43.0814 101.896 43.4153 103.159C44.1389 105.897 47.2561 101.603 48.0509 101.185C49.5667 100.387 50.6059 101.406 52.1664 101.694C54.0356 102.038 55.5396 101.051 57.3004 100.657C59.3597 100.197 61.6764 100.037 63.7715 99.7907C64.5992 99.6935 67.7344 100.348 68.0174 99.318C68.5036 97.5484 63.5953 98.0405 62.8094 98.2073Z" fill="#C1DEE2"/>
<path fill-rule="evenodd" clip-rule="evenodd" d="M77.2351 103.722C77.261 103.742 77.3658 103.821 77.2351 103.722V103.722ZM82.835 98.1001C84.5467 97.9265 90.0234 96.7037 91.1479 98.4724C91.8802 99.6245 90.7179 103.877 89.6092 104.427C88.723 104.866 86.6587 104.38 85.6863 104.346C83.877 104.282 82.0638 104.254 80.2565 104.141C79.6503 104.103 77.6999 104.215 77.2248 103.678C76.6636 103.045 76.6886 99.6678 76.5565 98.8303C78.1303 99.3398 81.1895 98.2673 82.835 98.1001ZM86.4902 96.3661C84.2979 96.461 82.1061 96.6258 79.9302 96.9198C78.7173 97.0837 77.4884 97.5195 76.3682 97.726C76.0071 97.7926 75.421 97.608 74.9783 97.8219C73.6844 98.4468 74.8174 102.673 75.1294 103.802C75.6087 105.537 76.8148 105.818 78.5047 105.981C80.7307 106.197 83.0024 106.129 85.2354 106.102C87.3879 106.075 90.2902 106.552 91.498 104.393C92.2787 102.996 93.1161 99.7443 92.4488 98.1881C91.5709 96.1405 88.293 96.2904 86.4902 96.3661Z" fill="#C1DEE2"/>
<path fill-rule="evenodd" clip-rule="evenodd" d="M111.04 104.884C110.922 105.034 110.922 105.034 111.04 104.884V104.884ZM111.52 104.305C111.316 104.537 111.484 104.36 111.52 104.305V104.305ZM106.292 104.146C107.258 103.964 108.225 103.784 109.193 103.607C108.276 104.89 107.312 104.36 105.747 104.248C105.928 104.214 106.11 104.18 106.292 104.146ZM101.682 103.692C101.927 103.61 102.171 103.528 102.416 103.446C102.409 103.632 102.449 103.807 102.537 103.97C102.117 103.924 101.698 103.876 101.28 103.824C101.414 103.78 101.548 103.736 101.682 103.692ZM99.5451 102.114C99.5314 101.778 100.037 102.009 100.327 101.986C99.7683 102.478 99.5075 102.521 99.5451 102.114ZM107.186 98.2978C107.259 98.2039 107.357 98.2086 107.478 98.312C107.346 98.3563 106.836 98.5724 107.186 98.2978ZM112.141 97.715C112.154 97.715 112.429 98.0862 112.141 97.715V97.715ZM112.002 97.5934C112.074 97.6484 112.074 97.6484 112.002 97.5934V97.5934ZM111.383 97.5211C112.32 98.881 112.397 97.692 111.383 97.5211V97.5211ZM99.4805 97.4401C99.2747 97.6109 99.3451 97.4453 99.4805 97.4401V97.4401ZM103.355 94.9086C101.635 95.0088 98.4777 94.908 97.0412 95.8244C95.1666 97.0207 96.153 101.138 96.3208 102.944C96.5687 105.612 97.8242 106.372 100.337 106.652C103.336 106.986 106.417 107.048 109.431 106.969C112.146 106.898 113.692 105.964 114.19 103.106C114.342 102.231 114.728 100.878 114.716 100.041C114.708 99.4595 114.418 99.1946 114.309 98.7005C113.685 95.8874 112.643 95.5538 109.76 95.4311C107.637 95.3409 105.437 94.7997 103.355 94.9086Z" fill="#89C5CC"/>
</g>
<path fill-rule="evenodd" clip-rule="evenodd" d="M137.298 70.1051C134.363 71.8742 131.479 72.729 130.126 72.38C126.731 71.505 126.419 59.0867 129.046 54.191C131.672 49.2953 145.175 47.1615 145.855 56.8614C146.092 60.2279 144.678 63.2324 142.589 65.6839L146.334 83.1388H135.456L137.298 70.1051Z" fill="#B28B67"/>
<path fill-rule="evenodd" clip-rule="evenodd" d="M150.598 53.6325C150.949 53.2843 151.141 52.7873 151.307 52.3154C151.479 51.8252 151.646 51.33 151.76 50.8197C151.989 49.8002 151.991 48.6278 151.264 47.8362C150.681 47.2014 149.805 46.9167 148.998 46.8548C148.459 46.8135 147.907 46.8889 147.391 47.0585C146.879 47.2267 146.438 47.562 145.942 47.7701C145.923 46.6714 145.735 45.5219 145.177 44.5838C144.641 43.6812 143.786 43.1748 142.812 43.0408C141.812 42.9032 140.825 43.1371 139.931 43.621C139.707 43.7422 139.485 43.8692 139.272 44.0129C139.094 44.1332 138.91 44.2781 138.701 44.3271C138.468 44.3817 138.353 44.2473 138.202 44.0776C138.024 43.8786 137.825 43.7033 137.613 43.548C136.679 42.8611 135.453 42.5786 134.37 42.9904C133.871 43.1801 133.386 43.5022 133.048 43.9462C132.746 44.3419 132.531 44.9696 132.115 45.2453C131.938 45.3624 131.813 45.2073 131.652 45.0927C131.411 44.9205 131.18 44.7305 130.936 44.563C130.592 44.3276 130.22 44.1516 129.822 44.0595C129.239 43.9246 128.433 43.9562 128.266 44.7199C128.204 45.0067 128.252 45.3135 128.272 45.6025C128.3 45.9993 128.329 46.3961 128.363 46.7923C128.389 47.0932 128.422 47.3838 128.479 47.6792C128.51 47.8367 128.604 48.1304 128.537 48.2881C128.452 48.4852 128.063 48.3731 127.896 48.38C127.568 48.3936 127.238 48.4512 126.934 48.5917C126.698 48.7005 126.451 48.8606 126.351 49.1306C126.29 49.2965 126.306 49.4668 126.335 49.6374C126.37 49.8422 126.33 49.9508 126.304 50.1574C125.863 49.94 124.333 49.457 124.14 50.2482C124.076 50.5116 124.222 50.8093 124.334 51.0315C124.529 51.4212 124.785 51.7773 125.047 52.117C125.593 52.8256 126.244 53.4367 126.946 53.9594C126.124 54.3247 125.91 55.4021 126.621 56.0441C126.935 56.3275 127.357 56.3906 127.754 56.3725C127.899 56.3658 128.108 56.3101 128.222 56.3353C128.283 56.3489 128.349 56.401 128.434 56.4068C128.993 56.4451 129.624 56.3104 130.171 56.1863C131.145 55.9652 132.067 55.5038 132.82 54.801C133.013 54.6207 133.173 54.5169 133.433 54.5196C133.66 54.5219 133.884 54.5844 134.112 54.5901C134.714 54.6055 135.257 54.3111 135.816 54.1151C135.85 54.8706 136.066 55.7027 136.375 56.3824C136.627 56.9366 137.153 57.0172 137.67 57.0658C139.324 57.2214 140.983 57.0478 142.639 57.0501C141.036 57.4124 139.38 57.5617 137.791 57.9881C137.073 58.1807 137.622 58.6647 137.929 59.0002C138.434 59.5527 138.81 60.2373 139.071 60.9585C139.855 59.9364 141.241 59.2629 142.469 59.5769C143.825 59.9238 144.781 61.7585 143.913 63.0775C143.41 63.8432 142.5 64.1388 141.743 64.4677C142.334 65.0816 142.476 65.9882 142.832 66.7518C143.007 67.1284 143.253 67.5542 143.645 67.6855C143.79 67.734 143.96 67.7382 144.074 67.8564C144.216 68.0028 144.25 68.1664 144.431 68.2922C145.153 68.7942 146.281 68.7555 146.921 68.1004C147.5 67.5078 147.349 66.5701 146.866 65.9694C147.636 65.6486 149.038 65.2361 148.732 64.0372C150.399 63.9265 154.448 61.2221 152.21 59.2459C153.438 58.5517 154.566 56.8553 153.777 55.3598C153.17 54.2083 151.757 53.6936 150.598 53.6325Z" fill="#D0D0DB"/>
<path fill-rule="evenodd" clip-rule="evenodd" d="M165.995 139.796H130.979L126.391 196H178.516L165.995 139.796Z" fill="#C5CFD6"/>
<path fill-rule="evenodd" clip-rule="evenodd" d="M165.995 139.796H155.226L148.78 196H178.516L165.995 139.796Z" fill="black" fill-opacity="0.1"/>
<path fill-rule="evenodd" clip-rule="evenodd" d="M111.74 150.931C115.675 159.276 121.824 179.534 121.824 179.534L116.604 181.919C116.604 181.919 103.359 160.624 95.2647 146.067C95.6418 149.345 96.0259 153.034 96.3819 156.912C97.2253 166.1 96.3823 185.95 95.9286 191.684C95.6435 195.287 90.7469 194.533 90.2898 191.674C90.2123 191.19 89.8968 189.491 89.426 186.955C87.1175 174.521 81.0759 141.98 81.0652 134.012C81.0609 130.806 87.3246 127.925 91.058 130.167C93.6225 127.431 98.4759 125.854 101.264 130.374C103.037 133.247 107.248 141.405 111.74 150.931Z" fill="#B28B67"/>
<path fill-rule="evenodd" clip-rule="evenodd" d="M121.45 172.034L103.534 129.592C99.2423 122.688 87.2086 130.997 88.6722 135.001C91.9952 144.093 108.895 173.525 109.885 176.233L121.45 172.034Z" fill="#1F28CF"/>
<path fill-rule="evenodd" clip-rule="evenodd" d="M79.8095 137.273C79.8095 149.314 85.5281 177.403 85.5317 180.054L97.8357 180.064C97.8357 180.064 95.1343 142.469 95.9199 142.064C96.7055 141.659 128.124 145.201 137.547 145.201C151.135 145.201 156.756 136.632 157.212 120.759H130.295C124.815 121.346 96.2272 127.112 85.6104 129.094C81.0652 129.943 79.8095 133.956 79.8095 137.273Z" fill="#2B44FF"/>
<path fill-rule="evenodd" clip-rule="evenodd" d="M110.369 83.9047L126.102 92.5214L120.292 98.757L108.86 88.2902C102.838 86.6305 100.084 85.4164 100.599 84.6479C101.032 83.9999 101.731 84.0224 102.375 84.0431C102.877 84.0592 103.345 84.0743 103.628 83.7705C104.275 83.0766 103.041 80.6506 101.772 78.3984C100.503 76.1462 101.86 76.3423 102.636 76.6662C105.175 78.3851 107.753 80.798 110.369 83.9047ZM94.5512 95.9951L101.462 99.7914L101.068 106.726C101.068 106.726 96.5924 103.496 92.7418 102.422C87.832 101.053 85.8456 100.008 83.4464 96.951C82.1627 95.3153 81.0732 92.0272 82.2951 90.9564C82.7638 90.5457 84.5102 91.5161 86.2921 92.5062C87.6501 93.2609 89.0288 94.027 89.8781 94.2018C91.0215 94.4372 90.8877 92.9552 90.7807 91.7709C90.7039 90.9211 90.641 90.2246 91.0738 90.4259C93.0967 90.4606 94.5512 95.9951 94.5512 95.9951Z" fill="#997659"/>
<path fill-rule="evenodd" clip-rule="evenodd" d="M133.764 90.6019C128.253 90.5437 120.905 89.3798 113.064 84.4028L109.985 91.2697C115.393 96.637 122.998 101.047 129.647 100.86C134.887 100.713 137.565 94.3747 133.764 90.6019Z" fill="#2026A2"/>
<path fill-rule="evenodd" clip-rule="evenodd" d="M96.9129 96.4525C96.9129 96.4525 117.208 103.674 126.348 101.6C126.89 99.7629 127.455 97.9219 128.019 96.0837C130.435 88.2122 132.834 80.3909 133.397 73.1672L134.648 73.1671H145.577L145.973 73.1672C147.352 73.1672 156.725 91.1353 156.734 102.809C156.737 106.817 158.142 110.276 159.62 113.917C162.074 119.959 164.731 126.503 161.531 136.898C158.678 136.336 153.864 136.964 148.626 137.647C138.821 138.925 127.528 140.398 124.816 134.632C122.793 130.328 122.19 125.619 122.455 120.669C114.114 120.488 103.989 117.736 92.176 111.566C91.7895 107.052 96.9129 96.4525 96.9129 96.4525Z" fill="#1F28CF"/>
</g>
<defs>
<clipPath id="clip0_257_877">
<path d="M0 0H208V69C208 126.438 161.438 173 104 173C46.5624 173 0 126.438 0 69V0Z" fill="white"/>
</clipPath>
</defs>
</svg>
