<svg width="208" height="173" viewBox="0 0 208 173" fill="none" xmlns="http://www.w3.org/2000/svg">
<g clip-path="url(#clip0_257_356)">
<rect x="28" y="24" width="153" height="153" rx="76.5" fill="#0D6B3C" fill-opacity="0.3"/>
<path fill-rule="evenodd" clip-rule="evenodd" d="M48.1646 44.1105C49.9931 43.8871 51.9446 43.966 53.645 44.6877C57.2608 46.2226 58.2885 50.4941 58.239 53.9661C58.1855 57.703 57.3919 61.7847 60.233 64.7956C61.539 66.1799 63.1636 67.2392 64.446 68.6489C65.8163 70.1553 66.8915 71.879 67.6875 73.7299C69.1493 77.1297 69.8667 81.1278 68.53 84.6942C67.3531 87.8342 64.3922 90.6684 65.032 94.2389C65.6993 97.9636 69.4546 100.811 71.8024 103.585C74.4595 106.725 76.9059 110.738 77.3078 114.855C77.6932 118.801 75.9756 122.792 73.3396 125.774C68.073 131.735 60.1565 134.656 52.1742 134.638C48.7851 134.63 44.948 134.477 42.0233 132.656C41.1194 132.093 40.6425 131.462 40.1052 130.584C39.6234 129.796 38.987 129.284 38.2503 128.727C36.6318 127.504 35.463 125.855 34.7171 124.009C31.8206 116.839 34.1356 107.969 38.1901 101.602C39.1509 100.093 39.9374 98.6418 39.4707 96.8438C38.9837 94.9669 37.7866 93.2741 36.7278 91.6607C35.6816 90.0663 34.4872 88.5452 33.6694 86.8212C32.813 85.0152 32.5718 83.124 32.7231 81.1475C33.0075 77.4348 34.6103 74.0086 36.8794 71.0227C39.0649 68.1467 41.6311 65.3948 41.6369 61.6263C41.6432 57.6322 38.973 54.0792 40.1106 50.0185C40.5816 48.337 41.5276 46.6118 43.0523 45.6037C44.5144 44.6369 46.445 44.3206 48.1646 44.1105Z" fill="#DDE3E9"/>
<path fill-rule="evenodd" clip-rule="evenodd" d="M46.9699 50.4956C47.0042 49.9592 47.6405 49.6374 48.1414 49.7774C48.8007 49.9617 48.788 50.5778 48.7706 51.1267C48.7173 52.8138 48.9615 54.4534 49.367 56.0903C50.2099 59.4937 51.7677 62.6294 53.0018 65.8987C54.2349 69.1652 54.8137 72.5378 54.0904 75.9942C53.4084 79.2532 52.3371 82.4276 51.6392 85.6907C51.0241 88.5666 50.3696 91.5995 51.3063 94.4682C52.2077 97.2294 54.2006 99.4782 55.6356 101.974C58.6063 107.139 59.9242 112.87 60.1005 118.767C60.1822 121.506 60.1086 124.269 59.4733 126.955C59.1077 128.502 58.6163 130.592 57.291 131.659C56.6799 132.152 55.6347 132.322 55.1204 131.593C54.6375 130.909 55.0611 129.85 55.2144 129.121C55.8783 125.966 56.0119 122.741 55.8529 119.537C55.6991 116.434 55.3324 113.335 54.3556 110.371C53.4491 107.621 52.0719 105.15 50.4509 102.744C48.7992 100.292 47.0822 97.8347 46.3997 94.9293C45.7063 91.9784 46.2696 88.9757 47.0228 86.0812C47.8194 83.0195 48.8628 80.0457 49.9415 77.0671C50.9927 74.1646 51.3653 71.4183 50.785 68.3805C49.6386 62.3788 46.5701 56.7456 46.9699 50.4956Z" fill="#C5CFD6"/>
<path fill-rule="evenodd" clip-rule="evenodd" d="M96.4419 51.393C98.7046 52.08 100.952 53.1885 102.565 54.9266C105.994 58.6228 104.942 64.2091 103.049 68.2893C101.011 72.6809 97.9227 77.0952 99.6636 82.134C100.464 84.4504 101.809 86.5484 102.568 88.8827C103.379 91.377 103.729 93.9748 103.685 96.5779C103.602 101.359 102.33 106.461 98.8775 109.983C95.8374 113.084 90.8665 114.895 89.7297 119.451C88.5437 124.203 91.4431 129.524 92.7305 134.026C94.1875 139.122 94.9359 145.14 93.231 150.218C91.5974 155.085 87.4735 158.911 82.8052 161.068C73.4778 165.376 62.6481 164.713 53.2952 160.539C49.3243 158.767 44.9047 156.59 42.4369 152.914C41.6743 151.778 41.4488 150.783 41.2826 149.466C41.1336 148.284 40.6578 147.347 40.0882 146.305C38.8366 144.016 38.3373 141.458 38.4381 138.887C38.8305 128.901 46.2342 119.615 54.3551 114.195C56.2792 112.911 57.969 111.603 58.3719 109.234C58.7927 106.761 58.2835 104.136 57.8944 101.677C57.51 99.2475 56.9131 96.8272 56.8652 94.363C56.8152 91.7816 57.532 89.4196 58.7542 87.1609C61.0502 82.918 64.7409 79.7 68.9806 77.3492C73.0642 75.0849 77.5287 73.1654 79.5273 68.7117C81.6458 63.9915 80.3919 58.4006 83.8725 54.19C85.3137 52.4465 87.3352 50.8984 89.6563 50.4993C91.8823 50.1166 94.3139 50.7468 96.4419 51.393Z" fill="#DDE3E9"/>
<path fill-rule="evenodd" clip-rule="evenodd" d="M91.82 59.1985C92.141 58.5812 93.0535 58.5337 93.5659 58.962C94.2403 59.5259 93.9029 60.2488 93.5951 60.8897C92.6491 62.8596 92.0759 64.9292 91.6928 67.0804C90.896 71.5526 91.0752 76.0825 90.8061 80.6009C90.5372 85.1155 89.4478 89.4128 86.7917 93.1269C84.2875 96.6288 81.3722 99.8266 78.8473 103.325C76.6218 106.409 74.268 109.657 73.861 113.545C73.4689 117.288 74.6214 120.995 74.9925 124.702C75.7608 132.377 74.3006 139.854 71.4181 146.93C70.0794 150.216 68.546 153.45 66.3965 156.298C65.159 157.938 63.4898 160.155 61.3809 160.725C60.4085 160.988 59.0971 160.642 58.8776 159.509C58.6711 158.446 59.7209 157.414 60.282 156.631C62.7109 153.242 64.5559 149.493 66.0481 145.616C67.4935 141.86 68.6874 137.999 69.0976 133.977C69.4781 130.244 69.1616 126.597 68.5265 122.898C67.8793 119.128 67.1585 115.318 67.8821 111.52C68.6168 107.662 70.848 104.401 73.2448 101.368C75.7797 98.1598 78.5572 95.185 81.3785 92.2229C84.1278 89.3366 86.0018 86.2797 86.9142 82.378C88.717 74.6698 88.0792 66.3904 91.82 59.1985Z" fill="#C5CFD6"/>
<path fill-rule="evenodd" clip-rule="evenodd" d="M26.4932 79.7447C30.2555 79.7447 33.5632 81.739 35.8424 84.5689C38.5104 87.8817 39.0493 91.9274 40.1327 95.8757C40.6718 97.8406 41.599 99.7912 43.2238 101.126C44.7017 102.34 46.5779 102.583 48.3469 103.176C51.8823 104.362 54.737 107.217 55.8644 110.702C57.2399 114.952 55.783 119.238 56.0339 123.546C56.2641 127.501 60.1644 129.969 63.3024 131.866C66.3967 133.735 69.1842 135.486 70.1162 139.129C71.1044 142.992 71.436 147.304 70.0672 151.121C67.7882 157.476 61.1186 160.274 54.6741 160.708C48.8254 161.102 41.4714 160.484 37.0791 156.238C34.4509 153.698 33.4991 150.145 33.6171 146.61C33.6905 144.411 34.126 142.234 34.6889 140.109C35.0879 138.604 35.627 137.105 35.7806 135.549C36.1889 131.41 32.3634 130.615 29.107 129.479C24.9691 128.034 22.0723 125.306 20.0579 121.506C18.1819 117.967 17.3948 113.995 18.5194 110.098C19.0937 108.109 20.1355 106.304 21.5483 104.769C22.1702 104.093 23.0468 103.53 23.6081 102.82C24.1321 102.157 24.018 101.298 23.8375 100.521C23.0025 96.9345 20.4012 93.9644 19.471 90.3841C18.6311 87.1524 19.1276 83.1304 22.0822 81.0455C23.3587 80.1446 24.9329 79.7546 26.4932 79.7447Z" fill="#C5CFD6"/>
<path fill-rule="evenodd" clip-rule="evenodd" d="M31.6198 89.0902C35.6075 93.3379 36.6913 99.101 37.0094 104.687C37.1876 107.819 37.0022 111.123 37.9224 114.161C38.7098 116.762 40.5557 118.749 42.4585 120.628C46.2886 124.41 50.5601 128.255 51.6804 133.728C52.3377 136.94 51.894 140.258 52.8023 143.434C53.6282 146.322 55.0823 149.159 56.851 151.597C58.275 153.56 60.1303 155.064 61.687 156.894C62.162 157.453 62.8423 158.275 62.6463 159.064C62.4169 159.988 61.2403 160.28 60.4055 160.135C58.4591 159.797 56.8207 157.938 55.548 156.587C53.6871 154.611 52.1057 152.486 50.8204 150.102C49.3936 147.455 48.2446 144.646 47.7537 141.676C47.2443 138.595 47.4979 135.384 46.3346 132.427C44.3772 127.451 39.6294 124.515 36.1967 120.637C31.9198 115.805 32.5577 109.79 32.9957 103.846C33.2364 100.58 33.4756 96.8906 31.825 93.9082C31.1949 92.7697 29.7901 91.7082 29.5192 90.4141C29.271 89.2285 30.6254 88.0303 31.6198 89.0902Z" fill="#AFB9C5"/>
<path fill-rule="evenodd" clip-rule="evenodd" d="M35.8726 158.894C35.8726 183.186 39.837 195.915 60.766 195.915C81.6951 195.915 85.6595 183.186 85.6595 158.894H35.8726Z" fill="#89C5CC"/>
<path fill-rule="evenodd" clip-rule="evenodd" d="M120.456 20.1329C126.094 33.5301 135.678 42.8386 140.754 56.7691C143.765 65.0302 145.019 74.0125 145.095 83.2119C145.137 88.2087 145.05 93.2087 145.026 98.2055C145.004 103.078 144.871 107.92 144.458 112.762C144.042 117.629 143.577 122.438 143.371 127.336C143.212 131.152 143.139 135.59 141.845 139.071C140.817 141.839 138.202 142.244 137.509 138.887C137.123 137.021 137.172 134.937 137.214 133.019C137.269 130.558 137.412 128.101 137.485 125.641C137.778 115.768 137.398 105.893 137.597 96.0159C137.791 86.3658 139.031 76.7262 137.659 67.1405C136.525 59.2246 133.646 52.4271 130.337 45.9105C127.154 39.6409 123.689 33.5237 121.537 26.3922C120.919 24.344 120.442 22.2216 120.213 20.0192C120.313 19.9727 120.394 20.0105 120.456 20.1329Z" fill="#C1DEE2"/>
<path fill-rule="evenodd" clip-rule="evenodd" d="M118.919 46.564C120.036 47.3702 120.66 48.5495 121.414 49.7131C122.353 51.1598 123.456 52.4658 124.394 53.9135C126.35 56.9317 128.069 60.1353 129.852 63.2757C133.238 69.2367 135.808 75.5899 137.081 82.4861C138.401 89.6329 138.757 97.0096 139.31 104.263C139.897 111.951 140.489 119.695 140.566 127.412C140.601 130.869 140.788 134.54 140.373 137.973C140.114 140.11 139.15 141.932 136.975 141.915C132.356 141.878 130.188 136.762 129.282 132.566C127.948 126.388 127.682 119.825 127.893 113.507C128.148 105.888 129.471 98.384 130.043 90.7947C130.649 82.7605 130.307 74.8682 127.544 67.3035C126.149 63.4807 124.529 59.7496 123.075 55.9522C122.456 54.3353 121.949 52.6745 121.112 51.1689C120.182 49.4942 119.027 47.974 118.298 46.1702C118.505 46.3017 118.712 46.4328 118.919 46.564Z" fill="#89C5CC"/>
<path fill-rule="evenodd" clip-rule="evenodd" d="M172.128 30.5432C172.27 30.4331 172.412 30.3231 172.553 30.2128C172.145 31.9315 171.408 33.3276 170.845 34.8987C170.339 36.3111 170.082 37.9095 169.741 39.4534C168.941 43.0794 168.015 46.6237 167.259 50.2807C165.762 57.5171 166.045 65.3129 167.027 73.3414C167.954 80.9253 169.421 88.4975 170.12 96.0798C170.699 102.368 170.948 108.852 170.395 114.852C170.02 118.926 168.789 123.791 165.435 123.38C163.856 123.186 163.032 121.286 162.701 119.141C162.168 115.695 162.056 112.072 161.848 108.645C161.384 100.997 161.292 93.373 161.201 85.8037C161.114 78.6621 160.875 71.379 161.352 64.4174C161.813 57.6998 163.252 51.6466 165.31 46.0615C166.395 43.119 167.427 40.1077 168.645 37.3033C169.23 35.9581 169.943 34.7694 170.528 33.4253C170.997 32.3442 171.371 31.2347 172.128 30.5432Z" fill="#C1DEE2"/>
<path fill-rule="evenodd" clip-rule="evenodd" d="M120.346 68.7033C120.957 67.6779 122.301 71.0596 122.506 71.485C122.419 71.2734 122.333 71.0621 122.245 70.851C123.457 72.867 124.566 74.9656 125.256 77.2771C125.938 79.5654 126.524 81.8999 127.165 84.2045C128.366 88.5283 129.916 92.7294 131.004 97.0922C132.065 101.344 132.332 105.523 132.076 109.92C131.809 114.491 131.646 119.131 131.957 123.699C132.106 125.881 132.815 127.913 133.3 130.013C133.787 132.116 134.17 134.246 134.745 136.323C134.877 136.052 134.894 136.956 134.894 137.025C134.89 137.544 134.818 137.979 134.651 138.471C134.222 139.735 133.42 140.81 132.199 141.159C129.992 141.789 127.944 139.782 127.233 137.663C126.212 134.623 125.649 131.262 125.163 128.066C124.717 125.136 124.612 122.188 124.744 119.217C125.005 113.358 126.065 107.576 126.352 101.719C126.664 95.342 125.401 89.3506 124.343 83.1435C123.834 80.1527 123.347 77.1901 122.355 74.3407C121.954 73.1868 121.43 72.1686 120.881 71.1031C120.569 70.4968 119.938 69.4155 120.346 68.7033Z" fill="#C1DEE2"/>
<path fill-rule="evenodd" clip-rule="evenodd" d="M138.246 58.7428C137.993 66.048 137.557 73.2977 136.583 80.5259C135.589 87.9023 134.447 95.2534 133.491 102.636C132.56 109.823 131.584 117.129 131.714 124.416C131.81 129.783 130.92 138.863 136.881 141.512C142.918 144.195 144.213 132.738 144.61 128.957C145.37 121.702 145.124 114.37 144.755 107.076C144.376 99.589 143.745 92.1404 142.961 84.681C142.092 76.3954 141.409 68.0725 140.861 59.7633C140.59 55.6534 140.524 51.5502 140.598 47.4393C140.669 43.56 140.522 39.6406 139.142 35.9575C139.07 36.0099 138.998 36.0623 138.926 36.1144" fill="#69A1AC"/>
<path fill-rule="evenodd" clip-rule="evenodd" d="M169.415 81.8863C168.329 83.4681 167.234 85.0344 166.209 86.7099C164.374 89.7076 162.715 93.0414 162.216 97.3278C161.171 106.298 162.009 115.987 162.212 125.232C162.253 127.121 162.014 128.953 162.759 130.751C163.434 132.381 164.696 133.624 165.899 133.617C168.475 133.602 168.082 127.295 168.086 124.519C168.094 119.653 167.548 114.737 167.595 109.876C167.642 105.06 167.935 100.23 168.633 95.6561C169.34 91.0263 170.376 86.5805 171.742 82.4316C171.932 81.8559 173.292 77.4069 172.007 78.1737" fill="#89C5CC"/>
<path fill-rule="evenodd" clip-rule="evenodd" d="M158.04 34.0425C156.346 34.0425 156.357 42.4847 156.306 43.569C156.122 47.4822 156.165 51.3963 156.049 55.3103C155.794 63.8516 155.481 72.4678 154.198 80.9104C153.507 85.4554 152.706 89.9802 151.845 94.4906C150.981 99.0141 149.821 103.532 149.253 108.113C148.707 112.516 149.016 117.007 149.091 121.432C149.165 125.884 149.3 130.345 149.883 134.758C150.027 135.847 150.196 136.933 150.377 138.016C150.527 138.918 150.439 140.037 150.694 140.894C151.102 142.267 152.851 142.717 154.028 142.502C157.215 141.92 159.251 137.919 160.339 134.995C161.73 131.262 162.467 127.213 163.195 123.279C164.02 118.822 164.503 114.297 164.73 109.759C165.191 100.537 164.599 91.3053 163.939 82.1128C163.571 77.0004 163.147 71.9105 162.497 66.8298C161.851 61.7708 161.021 56.7343 160.48 51.6604C160.088 47.9732 159.701 44.2809 159.447 40.5795C159.386 39.697 159.335 34.0425 158.04 34.0425Z" fill="#69A1AC"/>
<path fill-rule="evenodd" clip-rule="evenodd" d="M155.92 95.4077C155.644 86.5443 152.081 47.6121 151.27 36.8939C151.067 34.2112 149.116 23.0413 148.863 20C148.176 20.8596 148.235 34.2401 148.243 37.3146C148.25 40.3559 147.873 43.3467 147.679 46.3716C147.482 49.4581 142.918 89.3197 142.326 92.2854C141.148 98.1856 140.36 104.24 139.752 110.273C139.159 116.153 138.238 122.356 139.031 128.267C139.213 129.628 139.502 130.967 139.971 132.217C140.478 133.567 140.826 134.816 141.233 136.23C141.888 138.506 143.073 140.504 144.894 141.444C148.628 143.371 150.633 139.009 151.649 135.211C153.272 129.146 154.314 122.982 154.803 116.612C155.343 109.565 156.141 102.503 155.92 95.4077Z" fill="#89C5CC"/>
<rect x="116.383" y="121.489" width="58.0851" height="58.0851" rx="1.2766" fill="white"/>
<rect x="110" y="127.872" width="6.38298" height="72.1277" rx="1.2766" fill="#C5CFD6"/>
<rect x="141.915" y="127.872" width="6.38298" height="72.1277" rx="1.2766" fill="#C5CFD6"/>
<rect x="174.468" y="127.872" width="6.38298" height="72.1277" rx="1.2766" fill="#C5CFD6"/>
</g>
<defs>
<clipPath id="clip0_257_356">
<path d="M0 0H208V69C208 126.438 161.438 173 104 173C46.5624 173 0 126.438 0 69V0Z" fill="white"/>
</clipPath>
</defs>
</svg>
