<svg width="208" height="173" viewBox="0 0 208 173" fill="none" xmlns="http://www.w3.org/2000/svg">
<g clip-path="url(#clip0_257_414)">
<rect x="28" y="24" width="153" height="153" rx="76.5" fill="#0D6B3C" fill-opacity="0.3"/>
<path fill-rule="evenodd" clip-rule="evenodd" d="M88.7986 29.1564C92.9431 31.6544 97.0151 32.8613 98.9266 32.3686C103.72 31.1331 104.16 13.5984 100.452 6.68571C96.7431 -0.227004 77.6773 -3.24002 76.7163 10.4563C76.3828 15.2098 78.3788 19.4521 81.3279 22.9137L76.04 47.56H91.4L88.7986 29.1564Z" fill="#B28B67"/>
<path fill-rule="evenodd" clip-rule="evenodd" d="M81.8 7.24C90.6635 7.3035 96.8306 6.92998 100.36 5.96C100.199 2.95598 97.0762 -0.440002 88.84 -0.440002C79.6765 -0.440002 74.76 4.90112 74.76 11.08C74.76 16.7251 78.394 23.6002 81.16 23.88C81.8768 23.7232 82.4887 22.8598 83.0972 21.6701C81.9578 21.1159 81.16 19.8095 81.16 18.12C81.16 16.496 82.5927 14.92 84.36 14.92C85.0046 14.92 85.6048 15.1297 86.1071 15.4749C87.2683 13.6048 88.7236 12.208 90.76 12.36L89.48 8.52L81.8 7.88V7.24Z" fill="#D0D0DB"/>
<path fill-rule="evenodd" clip-rule="evenodd" d="M69.64 212.04C96.8566 212.04 118.92 190.979 118.92 165C118.92 139.021 96.8566 117.96 69.64 117.96C42.4234 117.96 20.36 139.021 20.36 165C20.36 190.979 42.4234 212.04 69.64 212.04Z" fill="#69A1AC"/>
<path fill-rule="evenodd" clip-rule="evenodd" d="M146.255 162.491C148.635 170.829 154.566 186.633 162.766 204.782L170.558 202.509C163.741 160.746 158.068 133.096 154.818 124.681C152.671 119.121 136.426 119.773 138.295 130.96C139.079 135.652 142.179 148.214 146.255 162.491ZM114.227 132.911C101.52 135.544 75.1722 144.851 67.6485 147.825C62.9201 149.694 65.9683 156.032 70.0021 155.478C70.6854 155.384 73.1021 155.113 76.7081 154.71C88.2907 153.414 112.144 150.746 130.234 148.142C139.76 146.771 134.636 128.928 124.745 130.816C121.418 131.452 117.879 132.155 114.227 132.911Z" fill="#B28B67"/>
<path fill-rule="evenodd" clip-rule="evenodd" d="M155.316 119.968C154.017 115.729 94.9598 100.68 94.9598 100.68H90.12V105.19L130.816 125.906C130.762 126.575 130.795 127.281 130.926 128.027C130.632 143.384 137.205 154.858 143.713 166.217C147.969 173.645 152.196 181.025 154.458 189.41L169.409 187.18C168.974 186.066 168.285 181.044 167.343 174.177C164.969 156.862 160.987 127.822 155.4 120.138C155.38 120.111 155.361 120.085 155.34 120.058C155.333 120.028 155.325 119.998 155.316 119.968Z" fill="#1F28CF"/>
<path fill-rule="evenodd" clip-rule="evenodd" d="M93.5013 138.21C89.7777 137.465 86.3487 136.799 83.4145 136.285C64.462 132.96 58.9352 122.815 62.2029 100.68H97.1227C102.827 102.319 132.471 114.75 147.852 121.362C158.032 125.739 154.823 141.515 149.058 145.62C149.027 145.872 148.923 146.043 148.738 146.12C126.882 155.179 108.243 154.503 96.2749 154.069C91.262 153.887 87.4192 153.748 85 154.384L81.2094 142.426L93.5013 138.21Z" fill="#2B44FF"/>
<path fill-rule="evenodd" clip-rule="evenodd" d="M71.6415 147.205C71.6121 146.456 70.9802 145.857 70.235 145.936C68.8758 146.081 66.8701 146.363 65.894 146.839C64.338 147.598 61.6058 149.573 61.6058 149.573C62.4862 151.378 77.4298 182.017 77.4298 182.017C77.4298 182.017 82.2275 181.242 81.2319 178.355C80.2363 175.467 79.626 173.534 79.626 173.534L78.9937 155.176C78.9813 154.815 78.6738 154.536 78.3139 154.559L75.4899 154.737C75.4899 154.737 73.0828 152.788 72.3136 151.211C71.8454 150.251 71.6908 148.46 71.6415 147.205Z" fill="#E4E4E4"/>
<path fill-rule="evenodd" clip-rule="evenodd" d="M18.4573 121.929C20.9651 118.507 36.0651 81.7201 36.0651 81.7201L47.3363 83.7609C47.3363 83.7609 27.7138 122.699 26.3167 124.937C24.5017 127.845 25.8453 132.771 26.7563 136.111C26.8972 136.628 27.0278 137.107 27.1348 137.534C24.9569 138.082 24.1798 136.819 23.3605 135.488C22.4351 133.984 21.4559 132.393 18.3438 133.224C17.1415 133.545 15.9823 133.971 14.8497 134.387C10.9376 135.823 7.34369 137.144 3.39167 133.625C2.76512 133.068 2.28271 131.298 4.36916 130.35C9.56728 127.988 17.2314 123.601 18.4573 121.929ZM148.864 102.955L128.449 87.9641L123.936 99.12L144.153 107.503C149.87 114.219 153.067 117.019 153.744 115.902C154.314 114.961 153.868 114.08 153.458 113.268C153.137 112.635 152.839 112.045 153.059 111.502C153.561 110.26 157.401 110.391 161.041 110.671C164.68 110.951 163.62 109.331 162.742 108.532C159.027 106.308 154.401 104.449 148.864 102.955Z" fill="#B28B67"/>
<path fill-rule="evenodd" clip-rule="evenodd" d="M91.5691 34.7865L84.7242 37.5936C84.7961 39.3814 84.789 41.9246 84.7809 44.8382C84.7555 53.983 84.7199 66.7771 87.0825 71.3178C95.2674 87.0488 112.074 95.243 130.793 104.37C133.302 105.593 135.845 106.833 138.407 108.11L143.557 97.5963C142.96 97.1734 142.369 96.7482 141.783 96.3206C142.592 96.0371 143.267 95.3968 143.562 94.5214C144.07 93.0141 143.259 91.3804 141.752 90.8726C138.689 89.8404 135.832 89.4053 133.205 89.5939C114.023 73.4309 101.11 54.5093 91.5691 34.7865Z" fill="#69A1AC"/>
<path fill-rule="evenodd" clip-rule="evenodd" d="M60.68 106.382C60.68 106.382 90.8608 109.698 108.191 106.382C109.623 106.108 109.56 99.9378 108.896 98.2526C98.5586 72.0092 91.7586 52.7978 91.7586 34.5697C88.9134 36.0558 81.8 35.0151 81.8 35.0151C69.0552 53.7997 63.1968 75.353 60.68 106.382Z" fill="#191847"/>
<path fill-rule="evenodd" clip-rule="evenodd" d="M22.4032 106.7C40.188 55.8671 76.6644 33.48 76.6644 33.48L80.1215 33.48L83.943 33.48C83.1185 44.3828 86.9923 60.2487 91.4861 78.6539L91.4861 78.654C98.673 108.089 107.446 144.02 101.122 176.532C93.3466 178.268 84.2104 177.082 74.3198 175.799C60.0453 173.947 44.1993 171.891 28.605 178.12C29.2062 165.096 36.8103 150.679 44.3802 136.327C49.1785 127.23 53.9631 118.159 56.9415 109.485C56.2582 108.842 55.902 107.878 56.077 106.885L56.4104 104.995C56.6364 103.713 57.677 102.78 58.9058 102.634C59.1206 101.674 59.3057 100.72 59.4587 99.7734C60.2402 94.9358 59.7413 90.1551 59.248 85.4282C58.9771 82.8329 58.708 80.2538 58.6534 77.6904C50.0818 85.3265 39.7059 98.6402 30.9507 121.717L18.8631 118.161C19.3253 116.443 19.8097 114.755 20.3144 113.094C18.9154 112.322 17.2659 108.661 18.4442 108.05C19.6893 107.405 21.0103 106.956 22.4032 106.7Z" fill="#89C5CC"/>
<path fill-rule="evenodd" clip-rule="evenodd" d="M79.3077 34.12L76.0058 44.2739L82.655 51.8858L76.6458 57.8675L91.1838 82.76L73.4055 57.9172L79.3077 51.8858L73.4055 45.159L79.3077 34.12Z" fill="black" fill-opacity="0.1"/>
<path fill-rule="evenodd" clip-rule="evenodd" d="M86.92 92.36C88.3338 92.36 89.48 91.2138 89.48 89.8C89.48 88.3861 88.3338 87.24 86.92 87.24C85.5061 87.24 84.36 88.3861 84.36 89.8C84.36 91.2138 85.5061 92.36 86.92 92.36ZM90.12 107.08C91.5338 107.08 92.68 105.934 92.68 104.52C92.68 103.106 91.5338 101.96 90.12 101.96C88.7061 101.96 87.56 103.106 87.56 104.52C87.56 105.934 88.7061 107.08 90.12 107.08ZM93.32 119.24C93.32 120.654 92.1738 121.8 90.76 121.8C89.3461 121.8 88.2 120.654 88.2 119.24C88.2 117.826 89.3461 116.68 90.76 116.68C92.1738 116.68 93.32 117.826 93.32 119.24Z" fill="black" fill-opacity="0.4"/>
</g>
<defs>
<clipPath id="clip0_257_414">
<path d="M0 0H208V69C208 126.438 161.438 173 104 173C46.5624 173 0 126.438 0 69V0Z" fill="white"/>
</clipPath>
</defs>
</svg>
