<svg width="208" height="173" viewBox="0 0 208 173" fill="none" xmlns="http://www.w3.org/2000/svg">
<g clip-path="url(#clip0_257_732)">
<rect width="153" height="153" rx="76.5" transform="matrix(-1 0 0 1 180 24)" fill="#0D6B3C" fill-opacity="0.3"/>
<path fill-rule="evenodd" clip-rule="evenodd" d="M100.651 42.6313C96.9824 44.8428 93.3776 45.9112 91.6854 45.475C87.4422 44.3813 87.052 28.8584 90.3352 22.7388C93.6184 16.6192 110.497 13.9518 111.347 26.0767C111.643 30.2849 109.876 34.0404 107.265 37.1049L111.946 58.9235H98.3484L100.651 42.6313Z" fill="#B28B67"/>
<path fill-rule="evenodd" clip-rule="evenodd" d="M99.9715 27.4158C98.7953 25.6645 97.6661 24.3287 96.1973 23.5529C90.2193 23.6474 89.5194 22.5757 89.5194 18.9637C90.485 18.2728 93.8918 17.1094 97.707 16.7822C99.6533 16.2252 101.959 16.33 104.18 17.259C106.922 18.037 109.243 19.7123 110.269 22.8489C113.979 29.2515 111.163 35.9165 107.368 38.1933C106.358 36.9965 105.476 35.8367 104.69 34.7265C105.322 34.1092 105.714 33.2477 105.714 32.2946C105.714 30.4172 104.192 28.8952 102.314 28.8952C102.176 28.8952 102.04 28.9034 101.907 28.9194C101.822 31.2667 101.474 39.2083 100.561 41.9668C99.4845 45.219 93.2019 46.0176 91.0106 46.0176C89.118 46.0176 89.1825 44.2254 89.2288 42.941C89.2354 42.756 89.2417 42.5815 89.2417 42.4245C89.2417 42.0964 89.6685 42.0972 90.1507 42.0982C90.7768 42.0994 91.4964 42.1009 91.4964 41.3825C91.4964 40.5994 90.4142 39.9987 89.4458 39.4612C88.8417 39.1259 88.2818 38.8151 88.0567 38.5C87.3464 37.5058 87.1072 36.1649 88.1787 36.1649C88.7644 36.1649 89.568 36.5026 90.5348 36.9088C91.9943 37.5221 93.8257 38.2916 95.8409 38.2916C99.17 38.2916 99.9617 27.5499 99.9715 27.4158Z" fill="#D0D0DB"/>
<path fill-rule="evenodd" clip-rule="evenodd" d="M49.5056 148.256C50.5599 159.781 49.5062 184.553 48.9391 191.699C48.5826 196.19 42.4619 195.014 41.8905 191.42C41.7937 190.811 41.3993 188.672 40.8109 185.48C37.9253 169.828 30.3731 128.864 30.3598 118.904C30.3536 114.337 40.522 110.684 44.5899 116.202C47.9345 113.852 52.6817 113.223 55.6085 117.967C57.8242 121.559 63.0888 131.756 68.7035 143.664C73.6221 154.095 81.3079 179.418 81.3079 179.418L74.7829 182.399C74.7829 182.399 58.6651 156.485 48.5168 138.316C48.8536 141.442 49.1885 144.789 49.5056 148.256Z" fill="#B28B67"/>
<path fill-rule="evenodd" clip-rule="evenodd" d="M80.8414 170.043L58.4462 116.99C53.0812 108.36 38.039 118.746 39.8686 123.752C44.0224 135.116 65.1475 171.906 66.385 175.292L80.8414 170.043Z" fill="#1F28CF"/>
<path fill-rule="evenodd" clip-rule="evenodd" d="M29.7932 123.046C29.7932 138.084 36.3846 173.431 36.3891 176.742L52.3563 176.204C52.3563 176.204 48.1697 130.105 48.8252 129.793C49.8085 129.324 89.1348 135.236 100.929 135.682C117.937 136.326 124.973 125.892 125.544 106.091L92.5991 106.091C92.5991 106.091 50.3429 111.135 37.0541 113.107C31.3649 113.952 29.7932 118.904 29.7932 123.046Z" fill="#2B44FF"/>
<path fill-rule="evenodd" clip-rule="evenodd" d="M65.1702 167.165C70.028 165.954 74.948 168.91 76.1592 173.768L77.2557 178.166C78.4669 183.024 75.5107 187.944 70.6529 189.155L66.9966 190.067C62.1388 191.278 57.2189 188.322 56.0077 183.464L54.9111 179.066C53.6999 174.208 56.6561 169.288 61.514 168.077L65.1702 167.165ZM68.9579 171.495C70.1724 171.192 71.4023 171.931 71.7051 173.146L73.6152 180.807C73.918 182.021 73.179 183.251 71.9645 183.554L63.2089 185.737C61.9945 186.04 60.7645 185.301 60.4617 184.086L58.5516 176.425C58.2488 175.211 58.9878 173.981 60.2023 173.678L68.9579 171.495Z" fill="#C5CFD6"/>
<path d="M132.909 115.014C132.909 111.885 130.373 109.348 127.244 109.348H66.6204C63.4913 109.348 60.9547 111.885 60.9547 115.014V142.776H130.643C131.895 142.776 132.909 141.762 132.909 140.51V115.014Z" fill="#2F3676"/>
<path fill-rule="evenodd" clip-rule="evenodd" d="M66.6204 109.348H65.3775C62.6027 109.348 60.2362 111.358 59.7866 114.096L47.3569 189.802H53.4112" fill="#2F3676"/>
<path fill-rule="evenodd" clip-rule="evenodd" d="M82.4844 156.941C82.4844 180.722 101.763 200 125.544 200C149.325 200 168.603 180.722 168.603 156.941C168.603 133.159 149.325 113.881 125.544 113.881C101.763 113.881 82.4844 133.159 82.4844 156.941ZM90.4164 156.941C90.4164 176.341 106.144 192.068 125.544 192.068C144.944 192.068 160.671 176.341 160.671 156.941C160.671 137.54 144.944 121.813 125.544 121.813C106.144 121.813 90.4164 137.54 90.4164 156.941Z" fill="#191847"/>
<rect width="4.53258" height="74.7875" transform="matrix(-1 0 0 1 127.81 119.547)" fill="#191847"/>
<rect width="4.53258" height="74.7875" rx="1.13314" transform="matrix(-0.707107 0.707107 0.707107 0.707107 100.705 128.897)" fill="#191847"/>
<rect width="4.53258" height="74.7875" rx="1.13314" transform="matrix(0 1 1 0 88.1501 154.674)" fill="#191847"/>
<rect width="4.53258" height="74.7875" rx="1.13314" transform="matrix(0.707107 0.707107 0.707107 -0.707107 97.5 181.779)" fill="#191847"/>
<path fill-rule="evenodd" clip-rule="evenodd" d="M50.3714 111.975L68.4441 98.7034L72.4392 108.579L54.5425 116.001C49.481 121.946 46.6507 124.425 46.0517 123.436C45.5465 122.603 45.9414 121.823 46.3051 121.104C46.5884 120.544 46.8528 120.022 46.6581 119.54C46.2136 118.442 42.8136 118.557 39.5918 118.805C36.37 119.053 37.3089 117.619 38.0858 116.911C41.3745 114.943 45.4697 113.297 50.3714 111.975ZM145.148 135.359C143.488 131.99 137.834 99.1614 137.834 99.1614L125.994 99.208C125.994 99.208 136.96 134.608 137.834 136.774C138.969 139.587 137.041 143.676 135.733 146.448C135.531 146.876 135.343 147.274 135.184 147.63C136.999 148.442 137.871 147.461 138.789 146.426C139.827 145.257 140.926 144.021 143.511 145.224C144.51 145.688 145.455 146.238 146.379 146.774C149.568 148.629 152.499 150.332 156.485 147.872C157.117 147.482 157.809 146.014 156.136 144.867C151.967 142.008 145.96 137.005 145.148 135.359Z" fill="#B28B67"/>
<path fill-rule="evenodd" clip-rule="evenodd" d="M104.187 49.4799L99.2877 48.6396C81.1102 64.3423 73.644 94.5093 51.3629 110.49L56.7258 117.137C95.3795 112.352 104.96 75.5551 104.187 49.4799Z" fill="#E87613"/>
<path fill-rule="evenodd" clip-rule="evenodd" d="M125.544 111.048C125.544 111.048 96.0778 111.048 82.1946 111.048C80.2138 111.048 80.5871 108.188 80.8734 106.745C84.1781 90.0871 97.0786 72.1312 97.0786 48.4197L109.583 46.4589C119.925 63.0926 123.502 83.572 125.544 111.048Z" fill="#DDE3E9"/>
<path fill-rule="evenodd" clip-rule="evenodd" d="M130.418 122.946C132.366 127.625 134.277 131.708 136.077 134.844H145.374C146.374 102.503 134.13 77.6184 123.883 62.6135C126.158 62.4509 128.212 61.4989 129.51 59.1565C134.08 50.91 132.43 46.3696 127.545 44.8772C124.86 44.0565 122.334 44.6167 119.31 45.2872C116.836 45.8359 114.029 46.4585 110.527 46.4589C110.526 46.4589 110.525 46.4589 110.524 46.4589C110.185 46.4589 109.876 46.4817 109.596 46.5251L105.447 46.7619C105.447 46.7619 88.6004 103.856 96.1545 122.946H130.418Z" fill="#FF9B21"/>
<path fill-rule="evenodd" clip-rule="evenodd" d="M130.418 122.946C127.862 116.807 125.241 109.641 122.718 102.24C121.779 110.39 120.215 118.576 117.612 122.946H130.418Z" fill="black" fill-opacity="0.1"/>
</g>
<defs>
<clipPath id="clip0_257_732">
<path d="M208 0H0V69C0 126.438 46.5624 173 104 173C161.438 173 208 126.438 208 69V0Z" fill="white"/>
</clipPath>
</defs>
</svg>
