<svg width="208" height="173" viewBox="0 0 208 173" fill="none" xmlns="http://www.w3.org/2000/svg">
<g clip-path="url(#clip0_257_591)">
<rect x="28" y="24" width="153" height="153" rx="76.5" fill="#0D6B3C" fill-opacity="0.3"/>
<path fill-rule="evenodd" clip-rule="evenodd" d="M157.809 97.0131C161.119 93.1278 163.359 88.3662 162.985 83.0307C161.906 67.6577 140.506 71.0396 136.344 78.7986C132.181 86.5575 132.675 106.239 138.055 107.626C140.201 108.179 144.771 106.824 149.423 104.02L146.503 124.677H163.744L157.809 97.0131Z" fill="#B28B67"/>
<path fill-rule="evenodd" clip-rule="evenodd" d="M128.706 68.0424C129.063 66.7875 130.023 65.713 131.317 65.3942C131.631 65.3169 131.955 65.2857 132.278 65.2987C132.394 65.3033 132.426 65.3367 132.48 65.2557C132.521 65.1957 132.522 65.049 132.538 64.9784C132.589 64.7589 132.654 64.5422 132.733 64.3311C133.004 63.6111 133.459 62.9738 134.008 62.437C135.034 61.4327 136.42 60.7396 137.86 60.6143C138.649 60.5457 139.431 60.6737 140.177 60.9302C140.562 61.0629 140.937 61.2282 141.301 61.411C141.411 61.466 141.767 61.7354 141.877 61.718C141.998 61.6987 142.243 61.3965 142.342 61.3207C143.564 60.3829 145.073 60.0143 146.595 60.0255C148.314 60.0382 149.968 60.1241 151.401 61.1716C151.705 61.3934 151.994 61.6362 152.269 61.8918C152.414 62.0264 152.554 62.166 152.688 62.3115C152.768 62.3992 152.847 62.489 152.923 62.5811C153.051 62.7375 153.031 62.7888 153.21 62.6797C153.9 62.2607 154.699 62.0647 155.504 62.1637C155.982 62.2225 156.447 62.366 156.889 62.5549C157.039 62.6192 157.387 62.8756 157.548 62.8781C157.706 62.8806 158.05 62.6428 158.213 62.5824C159.098 62.2559 160.051 62.1754 160.981 62.3263C161.94 62.482 162.882 62.8646 163.694 63.3933C164.085 63.6476 164.426 63.9294 164.7 64.3075C164.818 64.4708 164.925 64.6435 165.059 64.7949C165.137 64.8835 165.293 64.9745 165.335 65.0867C165.31 65.0195 166.384 64.6055 166.485 64.579C167.025 64.438 167.575 64.4666 168.103 64.6406C169.097 64.9677 169.952 65.7014 170.655 66.4536C171.016 66.84 171.332 67.2671 171.6 67.7221C171.728 67.94 171.846 68.1642 171.953 68.3931C172.005 68.504 172.04 68.6428 172.108 68.7427C172.197 68.8714 172.256 68.8739 172.417 68.93C173.23 69.2151 173.972 69.6975 174.537 70.3494C175.108 71.009 175.479 71.8212 175.634 72.6766C175.643 72.7269 175.649 72.9357 175.678 72.963C175.719 73.0006 175.882 72.984 175.944 72.9912C176.158 73.0164 176.371 73.0538 176.581 73.1035C176.968 73.1951 177.345 73.3299 177.701 73.5063C179.091 74.1937 180.084 75.4824 180.571 76.9324C181.081 78.4542 181.072 80.1977 180.462 81.6911C180.363 81.9323 180.246 82.1664 180.109 82.3879C180.024 82.5238 179.997 82.5242 180.052 82.6668C180.113 82.8255 180.225 82.9797 180.297 83.1348C180.534 83.6409 180.7 84.1776 180.805 84.7257C180.976 85.625 181.061 86.5699 180.892 87.476C180.813 87.8967 180.676 88.308 180.467 88.6827C180.361 88.8737 180.236 89.0549 180.095 89.2225C180.022 89.3096 179.944 89.3927 179.863 89.4723C179.817 89.5178 179.756 89.5576 179.716 89.6084C179.62 89.7323 179.6 89.6305 179.649 89.8124C179.719 90.0667 179.876 90.3176 179.973 90.5651C180.072 90.8201 180.162 91.0787 180.244 91.3397C180.411 91.8684 180.552 92.4066 180.64 92.9541C180.809 94.0052 180.779 95.1252 180.282 96.0899C180.069 96.5025 179.764 96.8645 179.394 97.1461C179.213 97.2838 179.017 97.4026 178.812 97.5001C178.706 97.5503 178.571 97.5718 178.523 97.674C178.471 97.7839 178.548 98.0022 178.565 98.1251C178.718 99.1942 178.795 100.317 178.477 101.364C178.185 102.329 177.54 103.181 176.703 103.745C175.08 104.84 172.892 104.778 171.187 103.902C170.742 103.674 170.326 103.39 169.955 103.056C169.01 104.327 167.066 104.287 165.685 103.925C163.965 103.473 162.585 102.277 161.789 100.705C160.702 102.029 158.419 101.6 157.665 100.164C157.481 99.812 157.371 99.4246 157.317 99.0326C157.289 98.8265 157.307 98.6185 157.286 98.414C157.258 98.1534 157.084 97.9002 156.984 97.6481C156.789 97.1574 156.668 96.6506 156.663 96.1214C156.661 95.8451 156.696 95.5758 156.722 95.3017C156.745 95.055 156.677 94.8251 156.638 94.5816C157.079 94.6543 157.617 94.5353 158.033 94.4073C158.44 94.2818 158.823 93.9512 159.11 93.6492C159.779 92.948 160.187 92.0288 160.467 91.1139C161.08 89.1059 160.828 86.6968 158.809 85.5948C157.868 85.0814 155.049 85.0831 153.929 85.3369C152.75 85.6036 151.415 88.2035 151.349 88.4479C151.308 88.5991 151.329 88.7863 151.19 88.8871C150.884 89.1087 150.381 88.7241 150.156 88.5344C149.767 88.2068 149.49 87.771 149.25 87.3293C148.727 86.3669 148.305 85.3348 148.007 84.2813C147.777 83.469 147.63 82.6314 147.33 81.8398C147.031 81.0522 146.561 80.3482 145.828 79.902C145.032 79.4166 144.119 79.161 143.245 78.856C142.378 78.5537 141.526 78.1842 140.854 77.5427C140.707 77.4017 140.563 77.2518 140.444 77.0858C140.35 76.9547 140.258 76.7037 140.115 76.6206C139.892 76.4912 139.568 76.8275 139.376 76.9496C138.427 77.552 137.636 78.3922 136.997 79.3101C136.363 80.2229 135.842 81.1013 135.419 82.1206C135.105 82.8766 134.909 83.8447 134.357 84.4643C134.11 84.7409 132.278 84.9083 131.685 84.6668C131.091 84.4253 130.426 83.7981 130.227 83.4051C130.023 83.0029 129.974 82.561 130.061 82.1206C130.113 81.8615 130.217 81.6195 130.274 81.365C130.323 81.1513 130.366 80.9492 130.47 80.7534C130.668 80.3823 131.005 80.1156 131.411 80.0041C130.988 79.6143 130.638 79.1479 130.395 78.6266C130.143 78.0851 129.93 77.4265 129.869 76.832C129.82 76.3493 129.896 75.849 130.16 75.4341C130.438 74.9989 130.929 74.715 131.354 74.4435C130.705 73.9356 130.149 73.3179 129.692 72.6341C128.804 71.3042 128.255 69.6279 128.706 68.0424Z" fill="#D0D0DB"/>
<path fill-rule="evenodd" clip-rule="evenodd" d="M107.707 155.796L79.3446 151.927C73.6709 148.772 68.4514 146.635 63.6861 145.518C62.3451 145.479 60.2118 145.966 63.3898 148.616C66.5679 151.265 69.7924 154.196 69.2261 155.61C68.6599 157.024 65.7044 156.498 65.2148 158.672C64.8884 160.122 69.685 160.358 79.6046 159.379L102.618 168.503L107.707 155.796ZM196.804 162.361L181.074 162.42C198.322 201.235 207.316 221.558 208.055 223.389C209.717 227.508 206.199 233.782 204.695 237.154C209.594 239.346 209.072 231.227 215.252 234.102C220.893 236.727 225.185 241.482 231.702 237.461C232.503 236.966 233.381 235.105 231.26 233.65C225.974 230.026 218.358 223.683 217.328 221.595C215.925 218.748 209.084 199.003 196.804 162.361Z" fill="#997659"/>
<path fill-rule="evenodd" clip-rule="evenodd" d="M153.718 112.472L141.402 113.292C138.368 140.734 121.847 158.068 84.8556 152.2L79.9412 187.538C114.515 192.007 144.836 178.165 151.05 140.688C152.659 130.986 153.929 120.889 153.718 112.472Z" fill="#AFB9C5"/>
<path fill-rule="evenodd" clip-rule="evenodd" d="M159.794 108.892L141.134 113.165C141.134 145.261 130.91 165.738 125.666 189.335H176.062C176.772 197.489 177.208 205.87 177.436 214.477H215.171C206.62 168.98 188.571 133.781 161.026 108.88H159.804L159.794 108.892Z" fill="#C5CFD6"/>
<path fill-rule="evenodd" clip-rule="evenodd" d="M168.111 143.547C169.41 163.547 168.646 178.81 165.82 189.335H176.062C174.656 173.182 172.175 157.92 168.111 143.547Z" fill="black" fill-opacity="0.1"/>
<g clip-path="url(#clip1_257_591)">
<path fill-rule="evenodd" clip-rule="evenodd" d="M61.1919 99.5202C66.6533 102.815 72.0194 104.407 74.5376 103.757C80.8542 102.128 81.4344 78.9987 76.5473 69.8805C71.661 60.7623 46.5373 56.7881 45.2714 74.8541C44.832 81.1242 47.4615 86.7199 51.3476 91.2858L44.38 123.795H64.62L61.1919 99.5202Z" fill="#915B3C"/>
<path fill-rule="evenodd" clip-rule="evenodd" d="M68.5533 59.9496C65.7872 59.1054 61.7729 58.819 60.0837 59.0128C61.0443 56.7086 61.4254 54.1415 61.1151 51.642C60.8123 49.2133 59.7287 47.1453 58.7259 44.9783C58.2638 43.9794 57.7401 42.986 56.9592 42.222C56.1639 41.4436 55.1561 40.9298 54.1003 40.6847C53.0199 40.4338 51.8899 40.4547 50.8079 40.6824C50.3289 40.7831 49.8996 41.0022 49.4299 41.124C48.9492 41.2488 48.7156 40.9476 48.3664 40.6448C47.5256 39.9153 46.2927 39.5552 45.2284 39.4263C44.0342 39.2818 42.7962 39.462 41.6569 39.8549C40.5487 40.2373 39.4844 40.8584 38.6833 41.7631C38.3265 42.1658 38.0027 42.6242 37.7919 43.1303C37.7059 43.338 37.6915 43.461 37.4841 43.5371C37.2926 43.6075 37.0691 43.6096 36.871 43.6766C34.9608 44.3245 33.3264 45.8024 32.4376 47.7C31.9181 48.8071 31.6727 50.7562 31.7393 52.9409C31.8067 55.1255 33.7776 60.8259 35.6211 62.9051C37.2656 64.761 39.6843 65.9857 42.0178 66.5218C40.4686 68.2942 39.4381 70.509 38.6748 72.7615C37.8467 75.2082 37.3348 77.7506 37.145 80.341C36.9654 82.8021 36.9485 85.4047 37.5254 87.8134C38.0643 90.0657 39.2171 91.9136 41.1424 93.0858C42.0237 93.6228 42.9725 94.0262 43.9271 94.3949C44.8674 94.7582 45.8103 95.1115 46.7953 95.3154C48.6599 95.7011 50.8079 95.6348 52.2441 94.1494C52.7619 93.6139 53.3311 92.941 53.7089 92.2869C53.8447 92.0516 53.9265 91.8978 53.7612 91.6678C53.5639 91.3924 53.2443 91.1814 52.9904 90.966C51.5424 89.7376 50.6468 88.0977 50.4208 86.1488C50.1914 84.1714 50.7219 81.6192 52.6421 80.7562C55.0136 79.691 57.6237 80.9137 59.7312 82.0535C60.6268 78.8897 62.4653 76.041 65.3486 74.5898C68.5373 72.9842 72.1973 72.7963 75.4745 71.4188C76.3288 71.0598 77.1992 70.6523 77.8274 69.9209C78.0906 69.6152 78.3984 69.2187 78.5038 68.8144C78.6413 68.2834 78.2989 67.838 78.0349 67.4241C76.6333 65.2288 71.3186 60.7937 68.5533 59.9496Z" fill="#191847"/>
<path fill-rule="evenodd" clip-rule="evenodd" d="M54.2428 113.101L63.4984 110.037C76.0531 141.433 94.7776 171.809 126.063 197.467L118.326 210.828C90.8316 194.616 64.8038 182.021 54.2428 157.694C50.6983 149.529 53.9535 122.864 54.2428 113.101Z" fill="#C5CFD6"/>
<path fill-rule="evenodd" clip-rule="evenodd" d="M22.4533 201.46C22.4533 201.46 62.2224 205.681 85.059 201.46C86.9456 201.112 87.2433 197.95 86.3679 195.805C72.7464 162.395 63.4056 133.243 63.4056 110.037C59.657 111.929 50.2833 110.604 50.2833 110.604C33.4892 134.519 25.7702 161.958 22.4533 201.46Z" fill="#323337"/>
<path fill-rule="evenodd" clip-rule="evenodd" d="M45.4704 108.6C45.9039 108.308 46.1325 108.162 46.1325 108.162L46.108 108.6H53.1068C53.4585 110.67 53.9738 118.344 54.7252 129.534C57.4551 170.196 63.301 257.284 75.7436 290.612H-10.1118C-8.30032 252.721 5.65541 207.409 20.1123 168.934C9.44434 179.559 -3.01439 197.369 -13.0833 227.016L-29.165 222.884C-12.7762 152.192 35.24 115.735 44.5563 109.228C44.6474 109.017 44.7384 108.808 44.8278 108.6H45.4704Z" fill="#DDE3E9"/>
</g>
</g>
<defs>
<clipPath id="clip0_257_591">
<path d="M0 0H208V69C208 126.438 161.438 173 104 173V173C46.5624 173 0 126.438 0 69V0Z" fill="white"/>
</clipPath>
<clipPath id="clip1_257_591">
<rect width="253" height="363" fill="white" transform="translate(-72 36)"/>
</clipPath>
</defs>
</svg>
