<svg width="861" height="540" viewBox="0 0 861 540" fill="none" xmlns="http://www.w3.org/2000/svg">
<g opacity="0.504511">
<path fill-rule="evenodd" clip-rule="evenodd" d="M797.193 415.82C807.885 484.004 548.579 528.477 325.387 497.44C102.196 466.403 -0.193158 345.2 106.31 280.618C212.813 216.036 786.501 347.637 797.193 415.82Z" fill="#F2F2F2"/>
</g>
<path opacity="0.5" fill-rule="evenodd" clip-rule="evenodd" d="M476.418 131.698C480.453 129.068 486.712 130.744 490.774 132.296C492.339 132.895 496.338 134.809 499.305 136.963C498.913 135.47 498.563 133.963 498.258 132.445C497.003 126.2 496.139 119.838 495.723 113.512C495.615 111.862 495.756 110.019 495.898 108.151C495.947 107.518 495.996 106.883 496.035 106.251C495.872 106.102 495.763 105.896 495.717 105.617C495.699 105.732 495.69 105.825 495.682 105.896C495.67 106.01 495.664 106.067 495.643 106.073C495.622 106.08 495.584 106.031 495.509 105.932C495.479 105.894 495.445 105.848 495.403 105.796C492.401 101.967 489.881 97.6533 489.534 92.911C489.241 88.8891 493.116 81.2792 498.608 86.5472C501.066 88.8999 500.427 105.423 496.737 106.436C497.723 111.911 498.962 117.377 500.515 122.773C500.748 122.738 500.985 122.735 501.22 122.762C501.198 121.421 501.195 119.957 501.26 119.453C501.813 115.117 506.06 106.312 512.822 108.022C518.018 109.335 514.833 114.743 513.065 117.11C510.218 120.921 506.999 122.571 502.921 124.553C502.84 125.371 502.22 125.848 501.489 126.002C504.22 134.717 507.807 143.217 512.501 151.246L512.626 150.736C513.222 148.299 513.917 145.457 514.357 144.861C516.658 141.737 521.751 137.922 526.448 139.77C536.313 143.657 525.605 154.828 517.207 156.043C516.858 156.455 516.489 156.786 516.096 156.975C517.727 159.399 519.471 161.772 521.338 164.084C524.136 167.562 527.144 171.028 530.297 174.474C530.394 171.779 531.642 165.771 531.996 165.125C534.15 161.205 540.356 157.171 545.392 159.956C551.055 163.096 545.92 169.029 542.69 171.715C541.366 172.815 534.817 176.85 532.507 176.868C540.125 184.995 548.534 192.982 557.084 200.681C556.375 197.234 555.45 187.743 555.553 186.689C556.084 181.252 560.273 172.556 568.526 174.675C576.533 176.727 572.991 185.762 570.25 190.069C568.59 192.675 566.294 195.323 563.526 197.141C563.027 197.469 562.376 197.736 561.725 198.003C560.941 198.325 560.158 198.646 559.646 199.071C559.19 199.45 559.05 199.886 558.912 200.317C558.765 200.773 558.62 201.225 558.105 201.602C562.725 205.744 567.378 209.8 571.964 213.744C574.128 215.605 576.331 217.43 578.556 219.233C579.773 218.802 581.509 219.368 581.418 220.839C581.405 221.052 581.347 221.237 581.269 221.406C582.955 222.744 584.652 224.072 586.362 225.387C586.323 225.004 586.335 224.464 586.413 223.718C585.182 225.212 585.233 223.036 585.273 221.377C585.287 220.791 585.299 220.269 585.253 219.997C585.072 218.931 584.837 217.875 584.604 216.821C584.104 214.57 583.607 212.325 583.632 210.001C583.685 205.069 587.347 196.801 595.052 199.738C602.137 202.434 599.559 209.744 596.887 214.327C595.195 217.227 592.879 219.817 590.46 222.296C590.028 222.739 589.549 223.338 589.075 223.931C588.371 224.812 587.678 225.68 587.165 226.003C593.743 231.034 600.477 235.917 607.21 240.801L607.213 240.803C610.229 242.99 613.244 245.176 616.245 247.376C616.376 246.893 616.484 246.414 616.577 245.966C616.389 246.147 616.133 246.232 615.806 246.215C615.718 245.845 615.592 245.354 615.44 244.763L615.44 244.762C613.586 237.548 607.938 215.577 623.23 219.835C634.434 222.964 626.526 242.096 618.169 248.788C623.24 252.525 628.263 256.309 633.168 260.206C636.718 263.026 640.163 265.943 643.476 268.957C641.761 265.054 640.146 260.002 641.206 255.982C642.75 250.131 649.984 244.606 657.047 247.936C665.852 252.104 659.078 257.797 652.726 263.135C649.483 265.861 646.349 268.495 645.456 270.786C655.989 280.672 664.981 291.655 670.99 304.166C677.525 317.772 683.592 336.053 680.237 351.275C680.856 344.582 678.207 336.178 676.346 330.276C676.093 329.472 675.854 328.715 675.64 328.015C672.844 318.861 668.873 309.955 663.639 301.618C655.255 288.267 644.181 276.933 631.396 266.643C628.485 267.509 625.323 269.112 622.704 270.439L622.704 270.439C621.097 271.254 619.696 271.964 618.681 272.338C613.789 274.139 604.397 276.721 601.281 271.047C598.216 265.468 606.038 262.348 610.885 261.098C615.569 259.891 619.793 260.037 624.162 261.026C617.395 255.904 610.462 250.945 603.531 245.987L603.528 245.985C602.254 245.074 600.98 244.163 599.708 243.251C597.946 244.484 596 246.267 593.934 248.159C587.377 254.165 579.608 261.281 572.669 255.467C562.199 246.694 582.225 237.777 590.756 238.473C591.804 238.558 592.817 238.747 593.805 239.003C585.105 232.699 576.538 226.265 568.437 219.378C566.983 219.605 564.669 221.431 561.889 223.624C555.64 228.554 547.039 235.34 540.56 229.997C535.882 226.14 537.484 220.132 542.005 216.697C546.544 213.247 553.124 213.253 558.717 214.415C561.135 214.914 563.365 215.868 565.444 217.031C565.493 217.033 565.541 217.035 565.589 217.038L565.703 217.043C557.731 210.195 549.71 203.193 541.985 195.952C541.851 195.989 541.712 196.027 541.574 196.066C541.107 196.554 540.325 196.733 539.608 196.625C539.215 196.74 538.813 196.859 538.402 196.98L538.399 196.981C532.28 198.783 524.415 201.101 518.317 200.101C513.828 199.366 509.756 196.251 513.555 192.416C516.644 189.297 525.024 189.745 529.111 190.484C531.106 190.845 533.277 191.891 535.456 192.94C536.371 193.381 537.287 193.822 538.193 194.214C538.428 193.809 538.838 193.549 539.305 193.424C531.677 186.148 524.398 178.62 517.796 170.765C515.798 171.029 513.582 171.778 511.296 172.551C505.796 174.411 499.893 176.406 495.656 172.108C489.401 165.761 501.164 162.057 506.756 162.66C508.644 162.863 510.506 163.32 512.303 163.923C507.499 157.456 503.83 150.544 501.253 143.284C501.228 143.295 501.204 143.306 501.181 143.317C501.145 143.334 501.109 143.352 501.064 143.368C501.103 143.35 501.137 143.331 501.171 143.313C501.196 143.299 501.221 143.285 501.248 143.272C500.991 142.545 500.744 141.816 500.509 141.084C500.072 140.876 499.664 140.723 499.469 140.66C502.009 142.156 491.291 142.887 489.284 143.024C484.846 143.327 478.902 143.44 475.646 140.336C472.912 137.73 473.071 133.879 476.418 131.698ZM680.713 351.296C680.525 353.502 680.058 355.522 679.186 357.188C679.84 355.291 680.341 353.32 680.713 351.296Z" fill="#DDE3E8"/>
<path opacity="0.5" fill-rule="evenodd" clip-rule="evenodd" d="M274.935 -9.1751C271.99 -11.0751 267.419 -9.86139 264.453 -8.73786C263.31 -8.30454 260.389 -6.91918 258.222 -5.36042C258.509 -6.44033 258.765 -7.52966 258.989 -8.6279C259.908 -13.1436 260.542 -17.7446 260.848 -22.3189C260.928 -23.512 260.825 -24.845 260.722 -26.1954L260.722 -26.198C260.687 -26.6546 260.652 -27.1132 260.623 -27.5691C260.742 -27.6771 260.822 -27.8261 260.856 -28.028C260.868 -27.9443 260.875 -27.8772 260.881 -27.8258C260.889 -27.7439 260.894 -27.7022 260.909 -27.6978C260.925 -27.6932 260.952 -27.7285 261.008 -27.8003C261.029 -27.8278 261.054 -27.8606 261.085 -27.8986C263.278 -30.668 265.12 -33.7881 265.375 -37.2173C265.591 -40.1257 262.765 -45.6271 258.753 -41.8161C256.957 -40.1141 257.416 -28.1665 260.11 -27.4355C259.388 -23.4761 258.481 -19.5233 257.345 -15.6207C257.175 -15.646 257.001 -15.6481 256.83 -15.6283C256.847 -16.5985 256.849 -17.6571 256.802 -18.0211C256.4 -21.1567 253.303 -27.5217 248.365 -26.2835C244.571 -25.3319 246.894 -21.4226 248.184 -19.7117C250.261 -16.9571 252.611 -15.7649 255.587 -14.3332C255.646 -13.7411 256.098 -13.397 256.632 -13.2854C254.635 -6.98267 252.012 -0.835282 248.581 4.9718L248.49 4.60321C248.056 2.84111 247.55 0.786433 247.229 0.355023C245.55 -1.90273 241.833 -4.65968 238.403 -3.32182C231.198 -0.508264 239.011 7.56595 245.143 8.44195C245.397 8.73945 245.667 8.97864 245.954 9.11577C244.761 10.8687 243.487 12.5853 242.123 14.2577C240.079 16.7732 237.881 19.2806 235.577 21.7735C235.508 19.8243 234.599 15.4804 234.341 15.0138C232.77 12.1798 228.24 9.26512 224.562 11.2804C220.426 13.5526 224.173 17.8413 226.53 19.7819C227.496 20.5776 232.276 23.4928 233.963 23.5053C228.397 29.3839 222.254 35.1622 216.008 40.7317C216.527 38.2393 217.206 31.376 217.131 30.6143C216.746 26.6829 213.691 20.3956 207.665 21.9305C201.818 23.4173 204.4 29.949 206.399 33.0623C207.61 34.9466 209.285 36.8609 211.306 38.1745C211.67 38.4112 212.145 38.6043 212.62 38.7971L212.62 38.7972C213.193 39.0297 213.764 39.2617 214.138 39.569C214.47 39.8429 214.572 40.1575 214.673 40.4695C214.78 40.799 214.886 41.1255 215.262 41.3981C211.887 44.3949 208.488 47.3293 205.138 50.1823C203.557 51.5289 201.948 52.8494 200.322 54.1534C199.434 53.8424 198.166 54.2525 198.232 55.3157C198.241 55.4702 198.283 55.6034 198.34 55.7256C197.108 56.6937 195.869 57.655 194.62 58.6059C194.648 58.329 194.64 57.9386 194.583 57.3995C195.482 58.4795 195.445 56.9058 195.417 55.7062C195.407 55.2823 195.398 54.9051 195.432 54.7082C195.565 53.9373 195.736 53.174 195.907 52.4118C196.273 50.7833 196.637 49.1602 196.62 47.48C196.583 43.9134 193.913 37.9358 188.286 40.0621C183.112 42.0137 184.991 47.2989 186.94 50.6121C188.174 52.7087 189.864 54.5806 191.629 56.3725C191.944 56.6924 192.294 57.1255 192.64 57.5544C193.153 58.191 193.659 58.8182 194.033 59.0517C189.228 62.6915 184.31 66.2244 179.392 69.7576L179.391 69.758C177.188 71.3407 174.985 72.9235 172.792 74.5159C172.696 74.1667 172.618 73.8204 172.55 73.4965C172.687 73.6273 172.874 73.6883 173.113 73.6763C173.177 73.4084 173.269 73.0527 173.381 72.6253C174.738 67.4085 178.871 51.519 167.704 54.6031C159.522 56.8691 165.288 70.7008 171.386 75.5373C167.682 78.2409 164.013 80.9789 160.43 83.7986C157.837 85.8388 155.32 87.949 152.9 90.1292C154.153 87.3069 155.335 83.6534 154.563 80.7464C153.438 76.5161 148.159 72.5237 143 74.9334C136.57 77.9503 141.513 82.0646 146.149 85.9227C148.516 87.8927 150.802 89.796 151.454 91.4523C143.759 98.6043 137.188 106.549 132.795 115.598C128.018 125.438 123.581 138.659 126.024 149.665C125.574 144.825 127.512 138.748 128.873 134.479C129.059 133.898 129.233 133.35 129.39 132.844C131.435 126.224 134.339 119.783 138.164 113.753C144.291 104.096 152.382 95.8971 161.721 88.4523C163.846 89.0774 166.154 90.2356 168.066 91.1948L168.066 91.195C169.239 91.7832 170.262 92.2966 171.002 92.5663C174.573 93.8673 181.43 95.7312 183.708 91.6276C185.947 87.5924 180.238 85.3387 176.699 84.436C173.279 83.5649 170.196 83.6716 167.005 84.3882C171.948 80.683 177.012 77.0952 182.075 73.508L182.083 73.5022C183.012 72.8443 183.94 72.1865 184.868 71.5279C186.154 72.4189 187.574 73.7071 189.081 75.0749C193.867 79.4158 199.536 84.5585 204.604 80.3526C212.253 74.0055 197.635 67.564 191.406 68.0701C190.641 68.1317 189.901 68.2684 189.18 68.4541C195.535 63.8928 201.792 59.2377 207.71 54.2556C208.772 54.4188 210.461 55.7384 212.49 57.3236C217.05 60.8864 223.327 65.791 228.06 61.925C231.477 59.1343 230.31 54.7907 227.011 52.3082C223.698 49.815 218.894 49.8212 214.81 50.6633C213.044 51.0254 211.415 51.7159 209.896 52.5573L209.784 52.5626L209.708 52.5661C215.531 47.6117 221.39 42.5462 227.034 37.3079C227.132 37.3346 227.233 37.3621 227.334 37.39C227.675 37.743 228.246 37.872 228.769 37.7937C228.954 37.8471 229.141 37.9016 229.331 37.9569C229.437 37.9878 229.544 38.019 229.652 38.0504C234.119 39.3521 239.86 41.0251 244.313 40.3005C247.591 39.7673 250.566 37.5137 247.794 34.742C245.54 32.4879 239.421 32.8144 236.436 33.3498C234.98 33.6114 233.394 34.3682 231.803 35.1276C231.134 35.4467 230.465 35.7661 229.804 36.0495C229.632 35.7569 229.333 35.569 228.992 35.4789C234.565 30.215 239.883 24.7694 244.706 19.0874C246.165 19.2778 247.783 19.8189 249.452 20.377C253.467 21.7199 257.776 23.1612 260.871 20.0518C265.441 15.4604 256.854 12.7855 252.771 13.2232C251.392 13.3708 250.033 13.7017 248.72 14.1385C252.231 9.46073 254.912 4.4611 256.797 -0.7893C256.816 -0.781521 256.833 -0.773545 256.849 -0.765537C256.876 -0.752989 256.902 -0.740376 256.935 -0.728359C256.907 -0.741318 256.882 -0.754873 256.857 -0.768365C256.839 -0.778363 256.82 -0.788327 256.801 -0.797993C256.989 -1.32329 257.169 -1.85094 257.341 -2.38046C257.66 -2.53069 257.958 -2.64126 258.101 -2.68681C256.245 -1.6048 264.071 -1.07913 265.536 -0.980721C268.776 -0.763474 273.117 -0.683644 275.495 -2.9286C277.493 -4.81434 277.378 -7.59895 274.935 -9.1751ZM125.538 149.231C125.682 150.7 126.107 152.042 126.944 153.141C126.329 151.885 125.869 150.576 125.538 149.231Z" fill="#DDE3E8"/>
<g opacity="0.7">
<path fill-rule="evenodd" clip-rule="evenodd" d="M664.973 299.623C676.6 299.02 690.979 305.806 692.219 318.445C693.12 327.628 692.841 336.784 694.236 345.953C695.351 353.281 697.709 360.316 700.926 366.991C704.018 373.41 710.434 378.874 712.103 385.731C713.166 390.1 712.571 396.247 711.104 400.521C709.321 405.717 710.269 405.306 713.823 409.666C720.787 418.211 727.058 426.973 731.492 437.179C737.88 451.878 742.067 469.059 739.697 485.15C739.395 487.193 739.038 494.525 736.224 495.038C733.082 495.611 734.551 491.417 734.719 490.063C735.788 481.419 736.738 473.864 735.448 465.086C730.472 431.216 706.174 408.9 690.353 380.154C689.483 378.672 687.647 375.142 686.37 372.813C684.355 369.136 682.328 362.14 679.6 359.414C674.461 354.278 679.186 364.603 680.187 366.574C681.453 369.068 682.846 371.718 684.143 373.902C690.079 384.03 696.704 395.085 702.835 405.524C676.321 411.565 657.648 379.69 650.533 358.733C644.67 341.468 637.656 301.1 664.973 299.623" fill="#69A1AC"/>
<path fill-rule="evenodd" clip-rule="evenodd" d="M820.808 267.56C801.371 269.102 788.893 281.928 783.085 299.866C779.954 309.534 779.595 319.465 777.856 329.399C775.239 344.346 769.608 355.673 758.603 366.322C755.195 369.62 752.683 373.006 750.897 376.628C747.353 380.245 744.267 384.338 742.001 389.343C739.105 395.734 738.286 403.401 741.629 409.773C742.528 411.485 744.77 414.924 747.094 416.486C738.393 435.018 733.609 455.314 734.148 475.584C734.474 487.82 735.071 500.061 735.768 512.282C735.956 515.563 737.024 520.982 738.629 515.478C740.098 510.445 738.256 502.543 738.086 497.284C737.256 471.666 736.547 448.374 747.093 424.439C748.199 421.931 749.371 419.442 750.592 416.974C750.664 416.932 750.73 416.882 750.798 416.833C750.844 416.869 750.887 416.908 750.933 416.943C751.011 416.804 751.118 416.638 751.243 416.453C751.593 416.092 751.899 415.635 752.189 415.125C753.125 413.829 754.183 412.306 754.189 411.473C754.189 411.466 754.185 411.456 754.185 411.45C760.714 400.793 768.191 390.724 775.829 380.851C775.771 380.923 784.113 369.565 782.823 375.846C782.202 378.873 776.066 384.637 773.588 387.844C768.106 394.976 761.668 404.014 756.319 412.754C755.599 413.167 754.582 415.198 753.847 416.711C753.441 417.478 753.062 418.251 752.689 418.924C771.644 425.186 786.389 412.572 796.443 397.899C796.455 397.882 796.466 397.864 796.477 397.847C799.537 393.793 802.671 389.767 806.586 386.562C813.119 381.215 820.115 380.271 827.817 377.639C848.821 370.463 857.752 343.241 860.588 323.043C863.788 300.256 848.135 265.313 820.808 267.56" fill="#89C5CC"/>
<path fill-rule="evenodd" clip-rule="evenodd" d="M782.414 203.747C762.465 224.509 752.828 253.306 745.196 280.378C736.673 310.614 731.044 341.318 730.828 372.755C730.686 393.409 730.124 414.192 731.33 434.822C731.757 442.149 732.488 449.489 733.649 456.737C733.745 457.332 736.343 473.516 738.829 469.745C740.243 467.6 736.166 452.957 735.857 450.518C734.124 436.78 733.722 422.942 733.806 409.105C733.945 386.324 733.273 363.659 735.583 340.961C735.927 337.572 736.199 334.013 737.004 330.697C737.859 327.173 736.77 328.711 739.554 327.316C742.259 325.959 745.602 326.153 748.409 324.451C759.542 317.701 765.237 300.36 769.669 288.982C774.739 275.971 777.82 262.097 780.281 248.405C782.088 238.345 783.38 228.346 784.112 218.156C784.342 214.945 784.356 211.586 784.987 208.429C785.157 207.577 786.01 206.07 785.979 205.316C785.913 203.719 784.95 202.781 784.871 201.439C784.036 202.191 783.216 202.96 782.414 203.747" fill="#89C5CC"/>
<path fill-rule="evenodd" clip-rule="evenodd" d="M673.641 480.365C673.641 514.7 701.475 542.534 735.81 542.534C770.145 542.534 797.979 514.7 797.979 480.365" fill="#89C5CC"/>
<path fill-rule="evenodd" clip-rule="evenodd" d="M778.415 425.933C793.802 424.798 810.985 437.211 818.407 450.129C824.39 460.544 823.382 474.22 819.686 485.285C817.211 492.693 811.81 503.255 802.804 503.358C791.535 503.487 790.991 489.559 790.774 481.417C790.484 470.593 789.116 461.163 780.587 453.785C779.534 452.874 778.428 452.022 777.324 451.169C776.343 450.412 775.362 449.656 774.418 448.859C774.267 448.731 774.115 448.604 773.963 448.476C770.947 445.941 767.779 443.279 767.394 439.1C766.835 433.045 770.253 431.955 775.472 433.08C775.64 433.116 776.097 433.29 776.719 433.525C779.385 434.536 785.072 436.691 783.996 434.114C783.591 433.143 782.111 432.374 780.244 431.797C775.411 431.272 769.648 430.662 767.991 431.026C750.11 434.949 743.149 459.717 741.3 475.453C741.1 477.152 740.939 478.856 740.798 480.563H737.513C737.741 476.441 738.042 472.327 738.731 468.251C741.367 452.664 749.606 429.77 767.678 427.241C768.345 427.146 770.798 427.13 773.768 427.305C775.176 426.518 776.753 426.042 778.415 425.933Z" fill="#69A1AC"/>
</g>
<g opacity="0.5">
<path fill-rule="evenodd" clip-rule="evenodd" d="M170.516 186.079C174.095 180.976 180.736 168.016 185.774 166.193C189.018 165.018 188.072 177.167 188.112 179.484C188.268 188.446 187.396 197.351 186.318 206.239C184.377 222.266 178.029 236.54 169.323 250.182C164.843 257.201 159.589 264.306 152.311 268.685C148.96 270.702 144.93 271.04 141.621 272.778C137.768 274.801 139.866 273.165 138.13 277.18C135.718 282.755 134.947 289.947 133.831 295.895C128.708 323.2 116.306 467.543 118.456 495.318C118.647 497.78 115.214 498.369 115.043 495.363C114.132 479.428 122.014 369.076 125.99 332.987C129.966 296.899 133.99 265.017 138.025 252.531C142.92 237.384 151.76 219.168 159.119 205.042C162.537 198.48 166.263 192.143 170.516 186.079Z" fill="#69A1AC"/>
<path fill-rule="evenodd" clip-rule="evenodd" d="M197.08 363.076C206.392 356.239 216.473 369.143 208.046 375.981C203.387 379.76 198.517 378.416 195.775 375.266C193.995 377.436 192.329 379.704 190.728 381.62C185.851 387.459 181.242 393.437 176.836 399.555C167.685 412.264 159.842 425.691 151.642 438.872C143.549 451.881 135.522 464.957 128.187 478.296C121.973 489.597 113.691 502.892 111.564 515.282C114.792 489.006 127.04 463.75 141.625 440.586C156.091 417.612 172.693 392.522 195.093 374.391C192.813 371.038 192.75 366.253 197.08 363.076Z" fill="#C1DEE2"/>
<path fill-rule="evenodd" clip-rule="evenodd" d="M20.3652 298.994C25.5766 300.013 34.0919 311.802 38.3876 316.293C43.4927 321.631 48.1244 327.32 52.4902 333.281C61.889 346.112 70.2946 359.753 77.4422 373.979C89.0947 397.17 98.4299 420.976 105.205 446.23C109.352 461.688 112.037 477.71 113.628 493.621C113.929 496.621 117.075 519.755 112.542 520.379C108.465 520.94 109.724 502.813 109.527 500.347C107.304 472.528 100.644 445.461 91.3789 419.24C89.3609 413.528 87.4861 406.532 84.2589 401.392C81.9348 397.689 84.2422 398.981 80.158 397.579C76.6511 396.376 72.6554 396.67 69.0642 395.196C61.2627 391.997 55.0159 385.786 49.5402 379.539C38.8989 367.397 30.4663 354.262 26.0707 338.705C23.6323 330.079 21.3916 321.403 20.1481 312.51C19.8265 310.211 17.0087 298.337 20.3652 298.994Z" fill="#69A1AC"/>
<path fill-rule="evenodd" clip-rule="evenodd" d="M40.9306 102.85C60.5606 136.894 76.6918 174.289 87.1078 212.166C93.4187 235.115 97.8321 258.664 102.217 282.042C109.007 318.242 115.429 354.438 117.255 391.28C119.093 428.336 122.727 471.075 110.594 506.766C116.655 470.53 110.884 431.96 109.862 395.5C109.374 378.094 107.959 360.859 106.103 343.555C104.302 326.769 101.36 310.063 98.6198 293.409C97.285 285.299 95.8832 277.2 94.456 269.106C94.03 266.691 93.85 259.526 92.3181 257.876C90.7763 256.215 82.91 255.538 80.4403 254.32C75.4673 251.866 70.7895 248.38 66.6495 244.697C58.713 237.636 51.8087 228.411 46.3593 219.316C33.7507 198.274 28.7099 172.594 28.9646 148.223C29.0136 143.492 36.6231 92.5402 33.567 91.8386C33.751 91.6231 33.925 91.4006 34.0891 91.1691C36.4029 95.043 38.6733 98.9432 40.9306 102.85Z" fill="#89C5CC"/>
<path fill-rule="evenodd" clip-rule="evenodd" d="M252.804 225.631C253.107 225.194 255.078 222.156 254.085 222.35C256.106 221.955 251.305 225.701 256.341 223.402C253.95 225.661 255.33 228.594 255.362 231.633C255.414 236.568 254.588 241.462 253.659 246.291C252.19 253.924 250.003 261.345 246.827 268.444C239.906 283.915 228.153 298.809 214.201 308.482C207.313 313.257 200.563 314.883 192.707 317.082C187.745 318.471 187.351 321.037 184.718 325.852C179.234 335.881 173.848 345.874 169.013 356.241C163.238 368.62 157.633 381.013 152.345 393.611C134.532 436.044 120.034 480.006 112.42 525.501C112.233 498.691 118.435 471.078 126.259 445.523C131.958 426.904 139.377 408.956 147.29 391.19C149.207 386.886 152.113 381.35 152.927 376.598C153.497 373.268 151.754 370.066 150.956 366.559C147.845 352.901 148.067 337.6 150.8 323.869C153.812 308.728 162.525 301.7 177.263 299.556C182.653 298.771 189.504 299.059 194.446 296.76C199.831 294.258 202.052 286.031 205.114 280.751C213.339 266.566 223.11 252.961 234.331 241.009C237.438 237.7 240.779 234.646 244.323 231.816C246.559 230.031 251.28 227.831 252.804 225.631Z" fill="#89C5CC"/>
<path fill-rule="evenodd" clip-rule="evenodd" d="M83.3279 501.425C82.9487 498.854 84.9414 496.546 87.5405 496.546H139.845C142.444 496.546 144.437 498.854 144.058 501.425L140.015 528.838C138.783 537.195 131.612 543.386 123.165 543.386H104.221C95.7739 543.386 88.603 537.195 87.3706 528.838L83.3279 501.425Z" fill="#C1DEE2"/>
</g>
<path fill-rule="evenodd" clip-rule="evenodd" d="M40.3824 510.56C40.3824 528.689 41.8131 543.386 61.0157 543.386C80.2182 543.386 81.6489 528.689 81.6489 510.56" fill="#F2F2F2"/>
<path fill-rule="evenodd" clip-rule="evenodd" d="M66.7283 499.249C66.0244 500.466 65.3968 501.708 64.8424 502.968C64.8229 500.373 64.9663 497.759 65.3582 495.109C66.0279 490.57 67.0509 486.055 68.0121 481.547C68.7029 478.308 68.6593 472.489 71.2811 469.907C72.0001 469.349 72.1731 470.444 72.1731 470.919C72.1822 471.019 72.1711 468.98 71.4733 469.335C67.3253 471.478 65.9813 478.214 64.6533 481.587C62.7158 486.509 61.0672 491.542 60.3884 496.663C60.2168 497.957 60.1235 499.251 60.102 500.542C59.961 500.197 59.8285 499.849 59.682 499.504C57.288 493.889 54.0571 488.411 50.0275 483.358C49.0356 482.114 36.5641 469.847 35.5878 471.725C35.6841 471.997 35.8858 472.223 36.1934 472.403C36.2114 472.424 36.2119 472.413 36.2014 472.382C36.9339 473.565 39.0164 475.393 39.6651 476.429C41.2976 479.038 42.5663 481.807 43.8557 484.523C46.5799 490.262 49.1069 496.059 51.5566 501.869C52.1271 503.222 52.7216 504.568 53.3281 505.909C47.0755 496.89 38.7344 488.703 27.2522 484.016C31.1739 486.011 33.7451 489.765 36.3935 492.639C39.5878 496.106 42.9521 499.479 46.1524 502.942C49.9272 507.027 54.3686 511.328 57.9994 515.849C61.5162 523.232 64.9337 530.624 67.0433 538.385C66.1789 535.704 66.9756 531.998 66.8276 529.184C66.7102 526.944 66.4483 524.722 66.0896 522.504C66.5331 523.504 66.9154 524.505 67.0885 525.436C66.9305 523.875 66.7484 522.323 66.5527 520.779C67.0549 519.334 67.548 517.986 67.8812 516.875C69.5884 511.176 71.6213 505.575 74.3896 500.117C76.9512 495.067 79.8896 490.082 83.0914 485.249C84.585 482.996 86.0991 480.751 87.6036 478.502C88.5885 477.03 89.5261 474.672 90.8972 473.262C82.0344 481.365 72.3512 489.526 66.7283 499.249" fill="#F2F2F2"/>
<path fill-rule="evenodd" clip-rule="evenodd" d="M835.139 34.4553C832.598 25.9805 826.633 19.3474 820.441 13.2699C808.386 1.43828 801.902 -5.87712 797.606 -23.1846C795.079 -33.3635 792.508 -44.15 784.494 -51.535C778.658 -56.9128 768.615 -61.4312 760.812 -57.5802C748.806 -50.4146 745.583 -35.7096 746.793 -22.5421C748.294 -6.22187 755.917 3.84115 770.563 9.85226C778.815 13.2377 784.3 17.7048 788.78 25.4887C792.363 31.7129 794.452 39.5069 798.955 45.1494C805.686 53.584 814.11 57.3336 824.494 55.9325C814.768 38.0385 803.405 19.9764 789.699 4.9104C788.416 3.39571 780.849 -2.4017 782.375 -4.9831C784.057 -7.82537 791.825 2.85144 791.77 2.78693C795.753 7.35894 799.439 12.2174 803.058 17.1225C803.049 17.1273 803.038 17.1299 803.028 17.1349C806.754 22.1682 810.451 27.2756 814.077 32.4471C815.544 34.6346 816.971 36.85 818.337 39.121C820.342 42.4535 823.525 51.9115 826.806 53.9606C827.508 54.3988 828.157 54.6436 828.764 54.7447C831.003 58.4104 833.181 62.1055 835.253 65.8443C840.664 75.6091 845.308 85.9193 847.439 96.9439C848.061 100.162 847.621 112.198 849.817 114.521C853.833 118.77 852.657 110.588 852.416 108.118C850.422 87.6675 843.08 70.2446 832.42 53.0518C835.695 48.7748 836.168 37.8891 835.139 34.4553" fill="#F2F2F2"/>
<path fill-rule="evenodd" clip-rule="evenodd" d="M697.598 44.3365C701.831 39.3483 712.009 38.5019 718.233 38.8358C725.935 39.2489 733.846 41.1238 741.173 43.3909C753.244 47.1251 764.973 53.9395 775.604 60.5352C776.885 61.33 792.669 70.8217 791.271 72.4875C789.887 74.1379 774.393 62.863 770.94 60.9198C763.571 56.7718 756.813 51.8664 748.691 49.1272C740.28 46.2905 731.386 45.1673 722.542 45.2447C721.407 45.2548 717.704 44.4634 717.624 46.1427C717.546 47.785 723.672 46.9281 724.753 46.9379C729.214 46.9789 733.704 47.3989 738.102 48.1721C746.343 49.6206 754.09 52.5388 761.149 57.0148C759.179 61.5939 754.458 63.7052 749.506 62.5594C745.225 61.5684 741.053 59.1255 736.861 58.4191C733.975 57.9327 731.084 58.2221 728.285 59.0353C720.902 61.1812 716.643 65.5771 708.525 62.5193C702.161 60.1222 691.518 51.5101 697.598 44.3365" fill="#F2F2F2"/>
<path fill-rule="evenodd" clip-rule="evenodd" d="M679.392 -36.0394C669.991 -36.725 659.493 -29.2226 654.959 -21.4152C651.304 -15.1204 651.919 -6.85452 654.177 -0.166888C655.689 4.31038 658.989 10.6939 664.492 10.7561C671.376 10.834 671.708 2.41629 671.841 -2.50471C672.018 -9.04704 672.854 -14.7463 678.065 -19.2057C678.708 -19.7561 679.384 -20.2714 680.059 -20.7866C680.658 -21.244 681.257 -21.7013 681.834 -22.183C681.926 -22.26 682.019 -22.3371 682.112 -22.4143C683.954 -23.9465 685.89 -25.5557 686.125 -28.0811C686.467 -31.741 684.378 -32.3996 681.19 -31.7196C681.087 -31.6977 680.808 -31.593 680.428 -31.4504C678.799 -30.8399 675.325 -29.537 675.982 -31.0945C676.229 -31.6814 677.133 -32.1464 678.274 -32.4949C681.227 -32.8124 684.748 -33.1809 685.76 -32.9608C696.684 -30.5899 700.938 -15.6203 702.067 -6.10932C702.195 -5.03236 702.297 -3.95172 702.386 -2.86943H704.389C704.249 -5.41121 704.066 -7.94886 703.636 -10.4622C702.026 -19.8831 696.992 -33.7199 685.951 -35.249C685.544 -35.306 684.046 -35.3156 682.231 -35.2103C681.37 -35.6858 680.407 -35.9733 679.392 -36.0394Z" fill="#F2F2F2"/>
</svg>
