<svg width="300" height="430" viewBox="0 0 300 430" fill="none" xmlns="http://www.w3.org/2000/svg">
<path fill-rule="evenodd" clip-rule="evenodd" d="M157.935 75.2443C164.411 79.1475 170.774 81.0333 173.76 80.2635C181.25 78.333 181.938 50.9351 176.143 40.1339C170.349 29.3328 140.558 24.625 139.057 46.0255C138.536 53.4529 141.654 60.0814 146.262 65.4901L138 104H162L157.935 75.2443Z" fill="#915B3C"/>
<path fill-rule="evenodd" clip-rule="evenodd" d="M166.664 28.37C163.384 27.37 158.624 27.0308 156.621 27.2603C157.76 24.5308 158.212 21.4899 157.844 18.5291C157.485 15.6521 156.2 13.2024 155.011 10.6354C154.463 9.45217 153.842 8.2754 152.916 7.37038C151.973 6.44834 150.778 5.83973 149.526 5.54937C148.245 5.25215 146.905 5.2769 145.622 5.54663C145.054 5.66593 144.545 5.9255 143.988 6.06979C143.418 6.21763 143.141 5.86077 142.727 5.50213C141.73 4.63797 140.268 4.21138 139.006 4.0587C137.59 3.88748 136.122 4.10102 134.771 4.56639C133.457 5.01943 132.195 5.75509 131.245 6.82681C130.822 7.30387 130.438 7.84687 130.188 8.44638C130.086 8.6924 130.069 8.83815 129.823 8.92827C129.596 9.0117 129.331 9.01412 129.096 9.09353C126.831 9.86095 124.893 11.6117 123.839 13.8595C123.223 15.1709 122.932 17.4798 123.011 20.0677C123.091 22.6556 125.428 29.4081 127.614 31.8711C129.564 34.0695 132.432 35.5203 135.199 36.1553C133.362 38.2548 132.14 40.8784 131.235 43.5467C130.253 46.445 129.646 49.4566 129.421 52.5251C129.208 55.4405 129.188 58.5235 129.872 61.3767C130.511 64.0448 131.878 66.2337 134.161 67.6223C135.206 68.2584 136.331 68.7363 137.463 69.173C138.578 69.6034 139.696 70.0219 140.864 70.2634C143.075 70.7203 145.622 70.6418 147.325 68.8822C147.939 68.2479 148.614 67.4508 149.062 66.6759C149.223 66.3972 149.32 66.215 149.124 65.9426C148.89 65.6164 148.511 65.3664 148.21 65.1112C146.493 63.6561 145.431 61.7135 145.163 59.4049C144.891 57.0626 145.52 54.0393 147.797 53.017C150.609 51.7552 153.704 53.2036 156.203 54.5537C157.265 50.806 159.445 47.4315 162.864 45.7124C166.645 43.8105 170.985 43.5879 174.871 41.9561C175.884 41.5309 176.916 41.0482 177.661 40.1818C177.973 39.8197 178.338 39.35 178.463 38.871C178.626 38.242 178.22 37.7145 177.907 37.2241C176.245 34.6236 169.943 29.37 166.664 28.37Z" fill="#191847"/>
<path fill-rule="evenodd" clip-rule="evenodd" d="M128 191L164.255 318.227L190.707 412H210L181.891 191H128Z" fill="#191847"/>
<path fill-rule="evenodd" clip-rule="evenodd" d="M118.304 191C117.466 256.574 114.606 292.34 113.726 298.298C112.845 304.256 99.5319 342.156 73.7861 412H93.7724C126.549 344.997 144.845 307.096 148.662 298.298C152.479 289.5 164.258 253.734 182 191H118.304Z" fill="#2F3676"/>
<path fill-rule="evenodd" clip-rule="evenodd" d="M72 430L73 409L94 409C108.936 419.5 133 426 133 426V430H95L82 428V430H72Z" fill="#191847"/>
<path fill-rule="evenodd" clip-rule="evenodd" d="M188 430L189 409L210 409C224.936 419.5 249 426 249 426V430H211L198 428V430H188Z" fill="#191847"/>
<path fill-rule="evenodd" clip-rule="evenodd" d="M50.3643 227.284C54.0937 221.804 75.6671 163.536 75.6671 163.536L93.3788 166.108C93.3788 166.108 64.8608 227.982 62.8011 231.554C60.1255 236.193 62.4922 243.812 64.0969 248.978C64.3452 249.777 64.5752 250.518 64.7655 251.179C61.3945 252.153 60.1121 250.223 58.7601 248.189C57.2331 245.892 55.6173 243.461 50.803 244.928C48.943 245.495 47.156 246.223 45.4102 246.934C39.3796 249.391 33.8395 251.648 27.4764 246.37C26.4676 245.533 25.6178 242.797 28.8242 241.203C36.8125 237.231 48.5411 229.963 50.3643 227.284ZM242.545 200.202L212.359 174.61L204.109 191.507L234.706 206.777C242.885 217.868 247.563 222.581 248.74 220.914C249.732 219.509 249.133 218.087 248.581 216.776C248.151 215.756 247.75 214.803 248.152 213.98C249.07 212.1 255.042 212.722 260.684 213.555C266.326 214.388 264.849 211.748 263.569 210.406C258.021 206.536 251.013 203.134 242.545 200.202Z" fill="#915B3C"/>
<path fill-rule="evenodd" clip-rule="evenodd" d="M149.695 91.3321L160.67 87.7027C175.557 124.893 197.76 160.876 234.857 191.27L225.683 207.097C193.081 187.892 162.218 172.973 149.695 144.155C145.492 134.483 149.352 102.897 149.695 91.3321Z" fill="#C5CFD6"/>
<path fill-rule="evenodd" clip-rule="evenodd" d="M112 196C112 196 159.157 201 186.236 196C188.473 195.587 188.826 191.842 187.788 189.301C171.636 149.724 160.56 115.192 160.56 87.7026C156.115 89.9439 145 88.3744 145 88.3744C125.086 116.703 115.933 149.206 112 196Z" fill="#323337"/>
<path fill-rule="evenodd" clip-rule="evenodd" d="M139.293 86C139.807 85.6536 140.078 85.4813 140.078 85.4813L140.049 86H148.348C148.765 88.4526 149.376 97.543 150.267 110.798C153.504 158.965 160.436 262.127 175.19 301.606H73.3852C75.5332 256.722 92.0815 203.047 109.224 157.47C96.5743 170.056 81.8011 191.153 69.8617 226.273L50.7925 221.378C70.2258 137.638 127.162 94.4517 138.209 86.7438C138.317 86.4945 138.425 86.2466 138.531 86H139.293Z" fill="#DDE3E9"/>
</svg>
