<svg width="401" height="449" viewBox="0 0 401 449" fill="none" xmlns="http://www.w3.org/2000/svg">
<circle cx="202.5" cy="199.5" r="166.5" fill="#EDF1EF"/>
<g clip-path="url(#clip0_362_333)">
<path fill-rule="evenodd" clip-rule="evenodd" d="M267.808 63.5202C262.347 66.8152 256.981 68.4072 254.462 67.7573C248.146 66.1276 247.566 42.9987 252.453 33.8805C257.339 24.7623 282.463 20.7881 283.729 38.8541C284.168 45.1242 281.538 50.7199 277.652 55.2858L284.62 87.7953H264.38L267.808 63.5202Z" fill="#915B3C"/>
<path fill-rule="evenodd" clip-rule="evenodd" d="M260.447 23.9496C263.213 23.1054 267.227 22.819 268.916 23.0128C267.956 20.7086 267.575 18.1415 267.885 15.642C268.188 13.2133 269.271 11.1453 270.274 8.97825C270.736 7.97939 271.26 6.98597 272.041 6.22197C272.836 5.44359 273.844 4.92981 274.9 4.6847C275.98 4.43379 277.11 4.45468 278.192 4.68238C278.671 4.7831 279.1 5.00222 279.57 5.12403C280.051 5.24883 280.284 4.94758 280.634 4.64482C281.474 3.91531 282.707 3.55518 283.772 3.42629C284.966 3.28175 286.204 3.46202 287.343 3.85488C288.451 4.23733 289.516 4.85836 290.317 5.76309C290.673 6.16582 290.997 6.62421 291.208 7.13031C291.294 7.338 291.308 7.46104 291.516 7.53712C291.707 7.60755 291.931 7.60959 292.129 7.67663C294.039 8.32447 295.674 9.80243 296.562 11.7C297.082 12.8071 297.327 14.7562 297.261 16.9409C297.193 19.1255 295.222 24.8259 293.379 26.9051C291.734 28.761 289.316 29.9857 286.982 30.5218C288.531 32.2942 289.562 34.509 290.325 36.7615C291.153 39.2082 291.665 41.7506 291.855 44.341C292.035 46.8021 292.051 49.4047 291.475 51.8134C290.936 54.0657 289.783 55.9136 287.858 57.0858C286.976 57.6228 286.028 58.0262 285.073 58.3949C284.133 58.7582 283.19 59.1115 282.205 59.3154C280.34 59.7011 278.192 59.6348 276.756 58.1494C276.238 57.6139 275.669 56.941 275.291 56.2869C275.155 56.0516 275.073 55.8978 275.239 55.6678C275.436 55.3924 275.756 55.1814 276.01 54.966C277.458 53.7376 278.353 52.0977 278.579 50.1488C278.809 48.1714 278.278 45.6192 276.358 44.7562C273.986 43.691 271.376 44.9137 269.269 46.0535C268.373 42.8897 266.535 40.041 263.651 38.5898C260.463 36.9842 256.803 36.7963 253.525 35.4188C252.671 35.0598 251.801 34.6523 251.173 33.9209C250.909 33.6152 250.602 33.2187 250.496 32.8144C250.359 32.2834 250.701 31.838 250.965 31.4241C252.367 29.2288 257.681 24.7937 260.447 23.9496Z" fill="#191847"/>
<path fill-rule="evenodd" clip-rule="evenodd" d="M293.053 161.24L262.478 268.643L240.17 347.805H223.9L247.605 161.24H293.053Z" fill="#191847"/>
<path fill-rule="evenodd" clip-rule="evenodd" d="M301.23 161.24C301.937 216.596 304.349 246.789 305.091 251.819C305.834 256.849 317.061 288.843 338.774 347.805H321.919C294.277 291.242 278.847 259.246 275.628 251.819C272.409 244.392 262.476 214.199 247.513 161.24H301.23Z" fill="#2F3676"/>
<path fill-rule="evenodd" clip-rule="evenodd" d="M340.28 363L339.437 345.272H321.727C309.131 354.136 288.837 359.623 288.837 359.623V363H320.883L331.847 361.312V363H340.28Z" fill="#191847"/>
<path fill-rule="evenodd" clip-rule="evenodd" d="M242.453 363L241.61 345.272H223.9C211.304 354.136 191.01 359.623 191.01 359.623V363H223.057L234.02 361.312V363H242.453Z" fill="#191847"/>
<path fill-rule="evenodd" clip-rule="evenodd" d="M358.526 191.87C355.381 187.244 337.187 138.055 337.187 138.055L322.251 140.226C322.251 140.226 346.301 192.459 348.038 195.475C350.294 199.391 348.298 205.823 346.945 210.184C346.736 210.858 346.542 211.484 346.381 212.042C349.224 212.864 350.305 211.235 351.446 209.518C352.733 207.579 354.096 205.526 358.156 206.765C359.725 207.243 361.232 207.858 362.704 208.458C367.79 210.532 372.462 212.438 377.828 207.982C378.679 207.276 379.396 204.966 376.692 203.62C369.955 200.267 360.064 194.132 358.526 191.87ZM196.454 169.008L221.911 147.403L228.868 161.668L203.065 174.558C196.167 183.921 192.222 187.9 191.229 186.493C190.393 185.306 190.898 184.106 191.363 182.999C191.726 182.138 192.064 181.334 191.725 180.639C190.951 179.052 185.915 179.577 181.157 180.28C176.398 180.983 177.644 178.755 178.723 177.622C183.402 174.355 189.312 171.483 196.454 169.008Z" fill="#915B3C"/>
<path fill-rule="evenodd" clip-rule="evenodd" d="M274.757 77.1013L265.502 74.0374C252.947 105.433 234.222 135.809 202.937 161.467L210.674 174.828C238.168 158.616 264.196 146.021 274.757 121.694C278.302 113.529 275.046 86.8642 274.757 77.1013Z" fill="#C5CFD6"/>
<path fill-rule="evenodd" clip-rule="evenodd" d="M306.547 165.46C306.547 165.46 266.778 169.681 243.941 165.46C242.054 165.112 241.757 161.95 242.632 159.805C256.254 126.395 265.594 97.2435 265.594 74.0373C269.343 75.9294 278.717 74.6044 278.717 74.6044C295.511 98.519 303.23 125.958 306.547 165.46Z" fill="#323337"/>
<path fill-rule="evenodd" clip-rule="evenodd" d="M283.53 72.6C283.096 72.3076 282.868 72.1621 282.868 72.1621L282.892 72.6H275.893C275.541 74.6705 275.026 82.3444 274.275 93.5341C271.545 134.196 265.699 221.284 253.256 254.612H339.112C337.3 216.721 323.345 171.409 308.888 132.934C319.556 143.559 332.014 161.369 342.083 191.016L358.165 186.884C341.776 116.192 293.76 79.7348 284.444 73.2279C284.353 73.0175 284.262 72.8082 284.172 72.6H283.53Z" fill="#DDE3E9"/>
</g>
<path fill-rule="evenodd" clip-rule="evenodd" d="M148.065 98.2443C141.589 102.147 135.226 104.033 132.24 103.263C124.75 101.333 124.062 73.9351 129.857 63.1339C135.651 52.3328 165.442 47.625 166.943 69.0255C167.464 76.4529 164.346 83.0814 159.738 88.4901L168 127H144L148.065 98.2443Z" fill="#B28B67"/>
<path fill-rule="evenodd" clip-rule="evenodd" d="M139.337 51.37C142.616 50.37 147.377 50.0308 149.379 50.2603C148.24 47.5308 147.788 44.4899 148.156 41.5291C148.515 38.6521 149.8 36.2024 150.989 33.6354C151.537 32.4522 152.158 31.2754 153.084 30.3704C154.028 29.4483 155.222 28.8397 156.474 28.5494C157.755 28.2522 159.095 28.2769 160.378 28.5466C160.946 28.6659 161.455 28.9255 162.012 29.0698C162.582 29.2176 162.859 28.8608 163.273 28.5021C164.27 27.638 165.732 27.2114 166.994 27.0587C168.41 26.8875 169.879 27.101 171.229 27.5664C172.543 28.0194 173.805 28.7551 174.755 29.8268C175.178 30.3039 175.562 30.8469 175.812 31.4464C175.914 31.6924 175.931 31.8381 176.177 31.9283C176.404 32.0117 176.669 32.0141 176.904 32.0935C179.169 32.8609 181.107 34.6117 182.162 36.8595C182.777 38.1709 183.068 40.4798 182.989 43.0677C182.909 45.6555 180.572 52.4081 178.387 54.8711C176.436 57.0695 173.568 58.5203 170.801 59.1553C172.638 61.2548 173.86 63.8784 174.765 66.5467C175.747 69.445 176.355 72.4566 176.579 75.5251C176.792 78.4405 176.812 81.5235 176.129 84.3767C175.489 87.0448 174.122 89.2337 171.839 90.6223C170.794 91.2584 169.669 91.7363 168.537 92.173C167.422 92.6034 166.304 93.0219 165.136 93.2634C162.925 93.7203 160.378 93.6418 158.675 91.8822C158.061 91.2479 157.386 90.4508 156.939 89.6759C156.778 89.3972 156.68 89.215 156.876 88.9426C157.11 88.6164 157.489 88.3664 157.79 88.1112C159.507 86.6561 160.57 84.7135 160.837 82.4049C161.109 80.0626 160.48 77.0393 158.203 76.017C155.392 74.7552 152.296 76.2036 149.797 77.5537C148.735 73.806 146.555 70.4315 143.137 68.7124C139.355 66.8105 135.015 66.5879 131.129 64.9561C130.116 64.5309 129.085 64.0482 128.339 63.1818C128.027 62.8197 127.662 62.35 127.537 61.871C127.374 61.2419 127.78 60.7145 128.093 60.2241C129.755 57.6236 136.057 52.37 139.337 51.37Z" fill="#191847"/>
<path fill-rule="evenodd" clip-rule="evenodd" d="M57.7925 284.672C59.6532 305.013 57.7935 348.736 56.7925 361.348C56.1634 369.275 45.3602 367.2 44.3518 360.856C44.181 359.781 43.4849 356.006 42.4462 350.372C37.3531 322.746 24.0236 250.446 24 232.866C23.9892 224.804 41.9364 218.358 49.1162 228.096C55.0194 223.949 63.3982 222.838 68.564 231.212C72.4747 237.552 81.7668 255.55 91.6766 276.566C100.358 294.978 113.923 339.672 113.923 339.672L102.407 344.934C102.407 344.934 73.9589 299.195 56.0471 267.127C56.6417 272.645 57.2328 278.553 57.7925 284.672Z" fill="#B28B67"/>
<path fill-rule="evenodd" clip-rule="evenodd" d="M113.1 323.125L73.5726 229.487C64.1033 214.255 37.5538 232.587 40.7831 241.422C48.1144 261.479 85.4003 326.414 87.5845 332.39L113.1 323.125Z" fill="#1F28CF"/>
<path fill-rule="evenodd" clip-rule="evenodd" d="M23 240.177C23 266.718 34.6337 329.106 34.6417 334.95L62.8239 334C62.8239 334 55.4344 252.636 56.5915 252.084C58.3271 251.257 127.738 261.691 148.555 262.479C178.574 263.615 190.992 245.199 192 210.251L133.852 210.251C133.852 210.251 59.2703 219.153 35.8155 222.634C25.7741 224.125 23 232.865 23 240.177Z" fill="#2B44FF"/>
<path fill-rule="evenodd" clip-rule="evenodd" d="M112.522 336.322C113.448 335.605 114.8 335.76 115.453 336.732C116.645 338.504 118.322 341.188 118.732 342.835C119.387 345.459 119.767 350.713 119.767 350.713C116.723 351.472 65.041 364.358 65.041 364.358C65.041 364.358 61.1495 357.837 65.6053 356.129C70.0612 354.421 72.9882 353.209 72.9882 353.209L95.5972 335.528C96.041 335.181 96.6838 335.269 97.0181 335.722L99.642 339.281C99.642 339.281 104.392 340.205 107.052 339.542C108.671 339.138 110.971 337.523 112.522 336.322Z" fill="#E4E4E4"/>
<path fill-rule="evenodd" clip-rule="evenodd" d="M55.5504 345.284C56.6221 344.813 57.8957 345.29 58.2949 346.391C59.023 348.398 60 351.409 60 353.106C60 355.811 59.0988 361 59.0988 361C55.9608 361 2.69695 361 2.69695 361C2.69695 361 0.498419 353.732 5.23518 353.152C9.97193 352.573 13.105 352.106 13.105 352.106L39.32 340.419C39.8346 340.189 40.437 340.43 40.6517 340.951L42.3368 345.039C42.3368 345.039 46.7218 347.085 49.4633 347.085C51.1323 347.085 53.7543 346.074 55.5504 345.284Z" fill="#E4E4E4"/>
<rect width="53" height="7" rx="3.5" transform="matrix(-1 0 0 1 59 361)" fill="#2F3676"/>
<path d="M205 226C205 220.477 200.523 216 195 216H88C82.4772 216 78 220.477 78 226V275H201C203.209 275 205 273.209 205 271V226Z" fill="#2F3676"/>
<path fill-rule="evenodd" clip-rule="evenodd" d="M88 216H85.8063C80.9088 216 76.7319 219.547 75.9384 224.38L54 358H64.6857" fill="#2F3676"/>
<path fill-rule="evenodd" clip-rule="evenodd" d="M59 378C49.0589 378 41 369.941 41 360C41 350.059 49.0589 342 59 342C68.9411 342 77 350.059 77 360C77 369.941 68.9411 378 59 378Z" fill="#191847"/>
<path fill-rule="evenodd" clip-rule="evenodd" d="M116 300C116 341.974 150.026 376 192 376C233.974 376 268 341.974 268 300C268 258.026 233.974 224 192 224C150.026 224 116 258.026 116 300ZM130 300C130 334.242 157.758 362 192 362C226.242 362 254 334.242 254 300C254 265.758 226.242 238 192 238C157.758 238 130 265.758 130 300Z" fill="#191847"/>
<rect width="8" height="132" transform="matrix(-1 0 0 1 196 234)" fill="#191847"/>
<rect width="8" height="132" rx="2" transform="matrix(-0.707107 0.707107 0.707107 0.707107 148.159 250.503)" fill="#191847"/>
<rect width="8" height="132" rx="2" transform="matrix(0 1 1 0 126 296)" fill="#191847"/>
<rect width="8" height="132" rx="2" transform="matrix(0.707107 0.707107 0.707107 -0.707107 142.503 343.841)" fill="#191847"/>
<path fill-rule="evenodd" clip-rule="evenodd" d="M52.64 95.9624L90.5438 107.341L80.8664 123.463L51.3955 106.118C37.6383 105.299 31.1382 103.942 31.8952 102.048C32.5335 100.451 34.0527 100.179 35.452 99.9279C36.542 99.7326 37.5594 99.5503 38.0309 98.7648C39.1077 96.9709 35.3331 92.3012 31.5617 88.023C27.7903 83.7448 30.8083 83.5455 32.6313 83.8886C38.8994 86.4334 45.569 90.458 52.64 95.9624ZM61.9949 197.592L93.8931 174.168L100.945 191.599L69.3569 204.698C60.4234 215.192 55.4279 219.566 54.3706 217.822C53.479 216.351 54.1759 214.974 54.8178 213.705C55.3179 212.717 55.7846 211.795 55.441 210.946C54.6564 209.006 48.6554 209.21 42.969 209.648C37.2825 210.085 38.9397 207.555 40.3108 206.305C46.1154 202.831 53.3434 199.926 61.9949 197.592Z" fill="#B28B67"/>
<path fill-rule="evenodd" clip-rule="evenodd" d="M143.439 111.087C126.069 143.476 100.95 168.305 64.5343 194.116L78.3227 209.663C118.982 194.553 140.441 185.436 150.979 154.835C153.624 147.154 155.472 122.671 157.058 109.789L143.439 111.087Z" fill="#2026A2"/>
<path fill-rule="evenodd" clip-rule="evenodd" d="M192 219H115C115 219 141.163 139.208 141.73 109.472C141.749 108.461 143.616 106.68 144.441 106.913C153.5 109.472 163.828 105 163.828 105C182.083 134.358 188.395 170.505 192 219Z" fill="#F2F2F2"/>
<path fill-rule="evenodd" clip-rule="evenodd" d="M144.514 149.791C132.488 201.377 133.042 243.606 159.593 243.606H200.649C207.17 199.784 190.032 139.024 174.144 108.377C173.537 107.206 172.246 105 169.203 105H157.273C157.268 105.016 157.263 105.032 157.257 105.047C153.668 105.077 149.714 105.208 145.433 105.35C123.392 106.082 92.6587 107.102 58.0773 96L54 116.373C85.2131 136.448 116.819 151.999 144.514 149.791Z" fill="#1F28CF"/>
<defs>
<clipPath id="clip0_362_333">
<rect width="253" height="363" fill="white" transform="matrix(-1 0 0 1 401 0)"/>
</clipPath>
</defs>
</svg>
